<?xml version="1.0" standalone="no"?>
<!DOCTYPE svg PUBLIC "-//W3C//DTD SVG 20010904//EN"
 "http://www.w3.org/TR/2001/REC-SVG-20010904/DTD/svg10.dtd">
<svg version="1.0" xmlns="http://www.w3.org/2000/svg"
 width="876.000000pt" height="876.000000pt" viewBox="0 0 876.000000 876.000000"
 preserveAspectRatio="xMidYMid meet">
<metadata>
Created by potrace 1.11, written by Peter Selinger 2001-2013
</metadata>
<g transform="translate(0.000000,876.000000) scale(0.100000,-0.100000)"
fill="#000000" stroke="none">
<path d="M4575 7194 c-44 -36 -87 -70 -95 -77 -8 -7 -33 -26 -55 -42 -22 -17
-50 -39 -62 -50 -12 -11 -28 -25 -35 -30 -64 -49 -147 -115 -177 -141 -20 -16
-124 -99 -231 -184 -107 -85 -200 -159 -206 -165 -7 -5 -24 -19 -40 -30 -29
-21 -81 -62 -100 -80 -6 -5 -26 -21 -44 -35 -18 -14 -50 -38 -70 -55 -20 -16
-53 -43 -75 -60 -34 -27 -299 -238 -335 -268 -8 -6 -35 -28 -60 -47 -25 -19
-54 -43 -65 -52 -11 -9 -94 -75 -185 -147 -91 -72 -172 -136 -180 -144 -8 -7
-45 -37 -82 -66 -38 -29 -68 -56 -68 -61 0 -4 11 -20 25 -36 34 -39 174 -212
205 -254 14 -18 37 -46 53 -63 15 -16 31 -37 36 -45 7 -12 12 -13 23 -5 7 6
173 139 369 294 429 342 418 333 449 358 14 11 165 131 335 266 171 136 328
261 349 278 22 18 69 55 105 84 36 28 73 58 81 65 9 7 47 38 85 68 39 30 75
58 80 62 6 4 21 17 35 27 l24 19 60 -47 c33 -25 72 -56 86 -67 33 -28 138
-112 180 -144 34 -26 86 -67 106 -85 7 -5 25 -20 40 -32 16 -12 88 -69 159
-125 72 -57 184 -146 250 -198 66 -52 127 -100 135 -107 8 -7 78 -62 155 -123
77 -61 149 -119 160 -128 11 -9 38 -30 60 -46 22 -17 42 -32 45 -35 3 -4 30
-25 60 -48 30 -23 69 -54 85 -67 17 -14 35 -29 40 -33 15 -12 197 -156 215
-170 8 -7 33 -26 55 -43 l40 -31 18 23 c10 13 29 37 43 53 13 17 33 41 43 55
11 14 61 77 111 140 103 129 116 150 102 159 -5 3 -24 18 -43 33 -19 15 -97
77 -174 138 -77 61 -156 123 -175 139 l-35 29 0 439 -1 438 -317 1 -317 2 0
-22 c-1 -11 -1 -92 -2 -179 0 -86 -3 -159 -7 -161 -6 -4 -134 92 -211 157 -14
12 -55 44 -90 72 -36 27 -67 52 -70 55 -3 3 -25 21 -50 40 -25 19 -46 38 -48
42 -2 4 -9 8 -16 8 -6 0 -18 9 -26 20 -8 11 -20 20 -26 20 -7 0 -14 3 -16 8
-2 6 -62 56 -113 95 -5 4 -71 56 -146 115 -74 59 -150 118 -168 132 -18 14
-38 30 -44 35 -34 29 -156 125 -159 124 -2 0 -39 -29 -83 -65z"/>
<path d="M3464 5321 c-39 -31 -78 -64 -87 -72 -8 -7 -28 -24 -44 -36 -15 -12
-95 -76 -178 -143 -82 -66 -163 -131 -179 -144 l-28 -23 -2 -1074 c-1 -591 1
-1079 5 -1084 4 -6 41 -9 86 -7 43 1 172 5 287 7 115 3 211 7 213 9 4 4 4
2618 0 2622 -1 1 -34 -24 -73 -55z"/>
<path d="M16 4950 c-14 -5 6 -56 110 -278 19 -41 34 -75 34 -77 0 -2 13 -32
29 -67 16 -35 59 -130 96 -213 37 -82 71 -154 75 -160 4 -5 11 -21 15 -33 4
-13 28 -70 55 -125 26 -56 72 -158 103 -227 57 -129 98 -220 147 -325 15 -33
44 -94 63 -135 19 -41 48 -104 65 -140 16 -36 45 -96 62 -135 55 -117 179
-379 189 -395 4 -8 19 -14 32 -13 47 3 215 15 249 18 19 2 77 6 129 9 52 3 95
7 97 9 1 1 41 88 89 192 128 279 139 302 180 390 50 108 78 169 80 175 0 3 14
32 29 65 16 33 43 92 61 130 18 39 49 106 70 150 20 44 48 105 62 135 33 71
93 200 153 325 57 120 100 212 169 360 28 61 56 118 61 128 22 39 31 56 70
141 22 49 38 91 36 93 -3 4 -510 6 -617 3 -15 0 -53 -73 -193 -374 -31 -65
-56 -120 -56 -122 0 -1 -20 -45 -44 -96 -120 -256 -168 -359 -171 -373 -3 -9
-33 -74 -130 -280 -13 -27 -35 -77 -50 -110 -53 -119 -46 -114 -74 -53 -14 29
-53 113 -88 186 -35 73 -63 135 -63 137 0 1 -25 56 -55 121 -31 66 -66 142
-79 169 -13 28 -38 82 -56 120 -18 39 -44 95 -57 125 -14 30 -34 75 -45 100
-12 25 -63 136 -113 248 l-92 204 -307 1 c-169 1 -313 0 -320 -3z"/>
<path d="M3873 4953 c-5 -2 26 -74 69 -161 177 -363 332 -681 360 -742 45 -97
138 -289 256 -530 58 -118 106 -217 107 -220 1 -4 79 -165 219 -450 l46 -95
168 -1 c92 -1 203 -3 247 -5 l80 -3 91 182 c50 100 89 184 86 187 -3 3 0 5 6
5 7 0 12 4 12 9 0 5 54 121 121 257 67 137 149 308 184 379 34 72 102 211 150
310 48 99 107 221 130 270 40 86 97 203 227 474 32 67 57 125 55 128 -4 3
-334 6 -584 3 l-52 0 -50 -102 c-27 -57 -88 -184 -137 -283 -48 -99 -89 -182
-90 -185 -1 -3 -5 -15 -9 -27 -4 -13 -11 -23 -16 -23 -5 0 -9 -5 -9 -12 0 -11
-71 -158 -280 -586 l-86 -174 -71 148 c-39 82 -116 241 -171 354 -55 113 -124
257 -155 320 -30 63 -82 171 -115 240 -33 69 -81 170 -107 225 -26 55 -49 102
-52 105 -5 5 -616 7 -630 3z"/>
<path d="M6810 4945 c-6 -126 -2 -2248 4 -2252 4 -3 31 -7 60 -8 28 -2 86 -6
129 -9 71 -6 116 -9 297 -21 131 -9 302 -23 375 -30 28 -3 86 -7 130 -11 101
-7 146 -11 215 -18 30 -3 82 -8 115 -11 106 -10 164 -15 223 -21 31 -3 80 -8
107 -11 28 -2 66 -6 85 -8 19 -2 65 -7 102 -9 37 -3 71 -6 75 -7 29 -5 30 6
30 241 0 237 0 240 -21 241 -12 0 -34 2 -51 4 -16 1 -70 6 -120 10 -49 3 -107
8 -127 10 -21 2 -79 7 -130 10 -51 3 -109 7 -128 10 -19 2 -80 7 -135 11 -55
3 -116 8 -135 9 -19 2 -71 6 -115 9 -44 2 -125 8 -180 11 -55 4 -124 8 -153
10 -29 1 -55 5 -58 7 -4 5 -7 273 -5 426 l1 43 133 -6 c72 -4 173 -8 222 -11
50 -2 126 -6 170 -8 93 -5 257 -14 365 -21 41 -3 117 -7 169 -10 51 -3 96 -6
100 -7 28 -3 29 8 30 227 0 123 -3 226 -7 229 -9 5 -361 20 -1011 41 -91 3
-166 7 -168 9 -3 3 -6 339 -4 442 1 29 2 30 44 28 23 -2 205 -5 404 -8 199 -2
367 -7 373 -11 5 -3 10 -1 10 5 0 7 8 9 21 5 11 -4 121 -8 244 -10 l224 -4 -2
49 c0 27 2 52 5 55 3 4 2 19 -2 35 -4 16 -6 31 -2 34 3 3 4 25 3 48 -5 103 -6
188 -1 188 4 0 4 16 2 35 -3 24 -9 35 -21 35 -9 1 -438 2 -953 3 -638 2 -938
-1 -938 -8z"/>
<path d="M2160 2498 c-124 -48 -250 -137 -390 -278 -106 -106 -143 -148 -203
-232 -22 -32 -42 -56 -45 -54 -4 4 50 127 68 156 5 8 19 33 31 55 46 87 120
165 207 221 58 39 67 67 31 100 -12 10 -22 18 -23 18 0 -1 -25 -16 -54 -33
-63 -37 -70 -43 -130 -101 -60 -59 -97 -102 -112 -131 -7 -13 -16 -26 -19 -29
-24 -18 -102 -199 -126 -290 -23 -90 -35 -241 -24 -310 10 -64 26 -84 61 -75
24 6 34 21 44 68 2 10 11 31 19 48 9 16 13 29 10 29 -14 0 100 192 162 272 60
77 262 263 350 321 189 125 249 144 273 88 17 -43 19 -78 5 -131 -45 -170
-215 -272 -491 -294 -27 -2 -54 -24 -54 -42 0 -22 49 -36 108 -32 l53 3 -7
-40 c-13 -66 -5 -125 21 -174 29 -53 70 -83 137 -99 94 -24 146 -10 227 57
l46 38 27 -27 c39 -40 97 -49 226 -36 56 5 176 39 221 62 20 11 27 11 30 1 7
-21 51 -57 71 -57 10 0 21 -4 24 -8 9 -15 79 -3 133 24 48 23 56 24 66 10 39
-50 155 -38 236 26 24 19 25 19 60 -16 49 -46 98 -60 190 -53 185 13 389 161
292 211 -29 15 -30 15 -77 -24 -27 -22 -54 -40 -61 -40 -7 0 -13 -4 -13 -10 0
-5 -3 -9 -7 -8 -5 2 -34 -6 -66 -16 -61 -19 -158 -19 -178 1 -5 5 -12 21 -14
35 -4 22 2 28 48 49 96 44 340 190 402 241 6 5 31 24 56 44 90 68 190 176 203
221 22 71 5 125 -46 142 -94 33 -230 -9 -373 -115 -170 -127 -316 -309 -374
-470 -21 -56 -27 -63 -89 -101 -105 -65 -149 -67 -117 -7 20 39 19 61 -4 74
-27 14 -23 16 -88 -41 -62 -55 -107 -79 -148 -79 -37 0 -33 45 8 106 46 66 97
95 163 92 57 -3 90 18 80 50 -17 51 -121 59 -213 17 -57 -26 -138 -100 -154
-142 -8 -22 -67 -65 -117 -84 -98 -39 -268 -57 -293 -32 -17 17 -7 25 33 28
41 3 119 24 134 36 6 5 13 6 16 4 12 -12 93 81 96 108 5 72 -51 113 -143 103
-94 -10 -181 -69 -225 -155 -21 -41 -102 -124 -160 -164 -31 -21 -98 -22 -128
-1 -12 8 -29 29 -38 46 -30 58 -23 188 10 188 29 0 141 43 189 72 62 38 129
106 165 167 27 47 61 155 57 183 -2 9 -6 35 -9 57 -8 58 -36 110 -78 144 -49
40 -119 45 -198 15z m1962 -186 c23 -23 -81 -134 -227 -242 -128 -95 -332
-216 -343 -205 -2 2 17 36 44 76 56 84 211 250 269 288 71 45 141 80 176 86
18 3 35 8 37 10 6 6 32 -1 44 -13z m-1502 -460 c0 -22 -114 -81 -129 -67 -10
11 16 40 50 57 36 18 79 23 79 10z"/>
<path d="M5138 2495 c-2 -1 -23 -5 -48 -9 -76 -9 -102 -16 -208 -52 -56 -19
-137 -53 -180 -75 -42 -23 -87 -46 -99 -52 -13 -7 -23 -15 -23 -19 0 -5 -4 -8
-10 -8 -25 0 -122 -98 -158 -159 -45 -77 -29 -168 39 -231 l30 -27 -43 -18
c-55 -24 -125 -80 -149 -119 -23 -37 -24 -96 -4 -136 8 -16 36 -42 63 -57 46
-27 51 -28 197 -28 132 0 200 5 270 20 11 3 31 7 45 9 14 2 45 10 70 17 25 7
51 14 58 16 29 7 38 10 57 18 11 4 45 18 75 30 l55 21 24 -29 c14 -16 40 -36
59 -44 66 -27 238 -1 344 53 48 24 68 25 68 1 0 -7 19 -25 43 -40 36 -24 51
-28 107 -26 76 2 138 19 205 54 38 21 50 23 56 13 5 -7 9 -16 9 -20 0 -3 20
-16 43 -27 59 -29 148 -17 199 27 15 13 19 12 33 -2 42 -42 102 -46 179 -12
31 14 64 32 73 41 14 15 17 14 37 -14 11 -16 36 -37 54 -45 65 -31 197 -14
296 39 l49 26 31 -29 c17 -17 47 -33 66 -37 42 -9 130 -12 130 -5 0 3 12 5 28
4 99 -4 332 110 332 162 0 18 -36 54 -54 54 -7 0 -24 -11 -37 -24 -68 -67
-212 -105 -366 -98 -35 2 -48 31 -15 33 9 0 26 2 37 5 11 2 31 6 45 8 14 2 25
5 25 6 0 1 7 3 16 5 58 11 121 62 145 116 16 35 -5 83 -47 104 -41 22 -131 14
-189 -15 -49 -25 -104 -79 -125 -123 -23 -47 -36 -61 -84 -91 -89 -56 -204
-73 -240 -35 -18 19 -18 24 -5 81 8 34 29 88 46 120 l31 59 61 -7 c124 -13
154 -9 162 21 11 44 -19 65 -88 65 -43 0 -59 3 -56 13 5 15 110 87 120 81 4
-3 14 8 22 24 13 26 13 31 0 51 -12 16 -21 20 -42 15 -58 -14 -105 -43 -191
-120 l-35 -32 -55 27 c-76 36 -161 105 -173 141 -8 22 -64 -34 -72 -71 -11
-56 30 -90 177 -149 32 -12 56 -25 55 -29 -2 -3 -15 -29 -30 -56 -14 -28 -34
-74 -43 -102 -13 -40 -26 -58 -58 -80 -23 -15 -44 -31 -47 -34 -3 -3 -24 -13
-48 -22 -38 -15 -43 -15 -48 -2 -4 8 -2 21 4 28 22 28 23 56 2 77 -25 25 -38
19 -99 -40 -127 -123 -232 -80 -122 50 48 57 92 79 148 73 73 -6 113 36 71 74
-32 29 -150 25 -208 -7 -51 -28 -111 -87 -146 -141 -40 -64 -137 -118 -225
-126 -65 -6 -92 7 -97 47 -4 35 29 137 61 188 l27 42 58 -6 c129 -14 161 -6
162 39 0 36 -20 46 -99 48 -28 1 -51 5 -51 9 0 12 67 60 105 76 53 22 68 85
24 99 -18 6 -117 -35 -142 -58 -37 -35 -107 -87 -117 -87 -43 0 -190 105 -217
155 -9 16 -14 17 -27 6 -9 -7 -25 -29 -37 -48 -18 -28 -19 -38 -10 -61 14 -32
45 -53 151 -100 41 -19 76 -35 78 -37 2 -1 -12 -31 -30 -66 -18 -35 -33 -66
-33 -69 -5 -22 -26 -87 -32 -96 -11 -14 -72 -50 -102 -59 -20 -6 -22 -5 -13
11 12 22 -2 58 -39 99 -21 22 -26 34 -19 45 27 43 -8 108 -61 112 -40 3 -85
-21 -104 -56 -17 -31 -17 -34 -1 -67 10 -19 36 -48 59 -64 54 -39 62 -80 20
-96 -70 -26 -118 -8 -89 35 22 35 20 51 -9 74 l-26 20 -47 -26 c-26 -14 -49
-29 -52 -32 -7 -8 -128 -57 -165 -66 -16 -4 -32 -8 -35 -9 -6 -1 -76 -15 -110
-22 -89 -17 -320 -24 -364 -11 -39 12 -53 37 -37 66 23 43 211 110 356 126 30
4 55 13 63 23 32 44 -4 85 -66 74 -38 -7 -109 -6 -152 2 -141 28 -150 133 -21
249 45 40 58 48 141 92 77 39 192 86 229 92 14 3 40 9 56 14 27 8 76 15 178
24 60 6 116 -13 123 -40 9 -36 -44 -105 -107 -140 -19 -11 -36 -21 -39 -25 -7
-7 -100 -42 -130 -48 -36 -7 -161 -5 -186 4 -18 6 -24 2 -33 -27 -6 -18 -9
-42 -6 -53 2 -11 4 -25 4 -31 3 -35 124 -40 216 -9 54 19 177 75 185 84 3 4
18 15 33 25 90 56 160 152 160 217 0 68 -55 127 -136 145 -26 6 -164 13 -169
9z m2184 -664 c-31 -27 -105 -55 -116 -44 -8 8 28 45 59 59 17 7 44 13 60 13
l30 0 -33 -28z"/>
</g>
</svg>
