<svg xmlns="http://www.w3.org/2000/svg" width="537" height="210">
  <path fill="#43458b" d="M12.006 10A2 2 0 0 0 10 11.992v11.016A1.992 1.992 0 0 0 11.992 25H17V10z"/>
  <path fill="#e25950" d="M24 10v15h4.994A2 2 0 0 0 31 23.008V11.992A1.992 1.992 0 0 0 29.008 10H24z"/>
  <path fill="#fcd669" d="M17 10h7v15h-7z"/>
  <path fill="#e25950" d="M18 18v.5a2.5 2.5 0 0 0 2.5 2.5v-3zm2.5-3H23v3h-2.5z"/>
  <path fill="#f6f9fc" d="M18 15h2.5v3H18zm2.5 6a2.5 2.5 0 0 0 2.5-2.5V18h-2.5z"/>
  <path fill="#e25950" d="M43.005 10A2 2 0 0 0 41 11.992v11.016A2 2 0 0 0 43 25h3V10z"/>
  <path fill="#24b47e" d="M46 10v5h16v-2.995A2 2 0 0 0 60.006 10z"/>
  <path fill="#f6f9fc" d="M46 15h16v5H46z"/>
  <path fill="#333" d="M46 20v5h14.006A2 2 0 0 0 62 23v-3z"/>
  <path fill="#eaeef3" d="M61 15h1v5h-1z"/>
  <path d="M93 12a2 2 0 0 0-2-2H74a2 2 0 0 0-2 2v3h21z"/>
  <path d="M74.491 10A2.49 2.49 0 0 0 72 12.489V15h21v-2.5a2.5 2.5 0 0 0-2.491-2.5z"/>
  <path fill="#45b2e8" d="M72 15h21v5H72z"/>
  <path fill="#f6f9fc" d="M72 19v3a3 3 0 0 0 3 3h15a3 3 0 0 0 3-3v-3z"/>
  <path fill="#fcd669" d="M79.035 15a3.5 3.5 0 0 1 6.93 0z"/>
  <path fill="#e25950" d="M91.19 15l-8.418 9.16a1 1 0 0 1-1.5-.036L73.645 15 72 13.03V23a2 2 0 0 0 2 2h17a2 2 0 0 0 2-2v-9.97zM105 10a2 2 0 0 0-2 2v3h21v-2.995A2.006 2.006 0 0 0 122 10z"/>
  <path fill="#555abf" d="M103 15h21v5h-21z"/>
  <path fill="#fcd669" d="M103 20v2.995A2.006 2.006 0 0 0 105 25h17.01a2 2 0 0 0 2-2v-3z"/>
  <path fill="#45b2e8" d="M135.995 10a2 2 0 0 0-2 2v3h21v-2.995a2.006 2.006 0 0 0-1.99-2.005z"/>
  <path fill="#f6f9fc" d="M134 15h21v5h-21z"/>
  <path fill="#eaeef3" d="M134 15h1v5h-1zm20 0h1v5h-1z"/>
  <path fill="#45b2e8" d="M134 20v2.995A2.006 2.006 0 0 0 135.995 25H153a2 2 0 0 0 2-2v-3z"/>
  <circle cx="144.5" cy="17.5" r="1.5" fill="#f4b32e"/>
  <path fill="#e25950" d="M166.995 10a2 2 0 0 0-2 2v3h21v-2.995a2.006 2.006 0 0 0-1.99-2.005z"/>
  <path fill="#f6f9fc" d="M165 15h21v5h-21z"/>
  <path fill="#eaeef3" d="M165 15h1v5h-1zm20 0h1v5h-1z"/>
  <path fill="#e25950" d="M165 20v2.995A2.006 2.006 0 0 0 166.995 25H184a2 2 0 0 0 2-2v-3z"/>
  <path fill="#43458b" d="M198 10h17a2 2 0 0 1 2 2v11a2 2 0 0 1-2 2h-17a2 2 0 0 1-2-2V12a2 2 0 0 1 2-2z"/>
  <path fill="#f6f9fc" d="M196 15.664l3.5-2.4 5.425 3.722h-1.767l-3.659-2.51-3.5 2.4zm9-5.569v1.213l-3.5 2.4-4.758-3.264a1.983 1.983 0 0 1 1.12-.444l3.638 2.5z"/>
  <path fill="#e25950" d="M204.909 17l-3.659-2.51-3.659 2.51H196v-.121l5.248-3.6L205 15.85V17zm-5.158-3.278l-3.6-2.47a1.99 1.99 0 0 1 .6-.8l3 2.059L203.409 10H205v.121z"/>
  <path fill="#f6f9fc" d="M205 14.625h-3.375V17h-2.25v-2.375H196v-2.25h3.375V10h2.25v2.375H205z"/>
  <path fill="#e25950" d="M205 14h-4v3h-1v-3h-4v-1h4v-3h1v3h4z"/>
  <path fill="#f6f9fc" d="M213.24 16.5a.75.75 0 1 1 .75-.75.75.75 0 0 1-.75.75zm-1.25 3a.5.5 0 1 1 .5-.5.5.5 0 0 1-.5.5zm-1.25-5a.75.75 0 1 1 .75-.75.75.75 0 0 1-.75.75zm-3 3a.75.75 0 1 1 .75-.75.75.75 0 0 1-.75.75zm3 4a.75.75 0 1 1-.75.75.75.75 0 0 1 .75-.75zm-10.75 1.023l-.684.653a.179.179 0 0 1-.3-.149l.068-.959-.922-.146a.186.186 0 0 1-.074-.334l.77-.544-.465-.834a.182.182 0 0 1 .207-.268l.892.282.343-.9a.176.176 0 0 1 .332 0l.343.9.892-.282a.182.182 0 0 1 .207.268l-.465.834.77.544a.186.186 0 0 1-.074.334l-.922.146.068.959a.179.179 0 0 1-.3.149z"/>
  <path fill="#fcd669" d="M233 10h9v15h-9z"/>
  <path fill="#333" d="M229 10h5v15h-5a2 2 0 0 1-2-2V12a2 2 0 0 1 2-2z"/>
  <path fill="#e25950" d="M246 25h-5V10h5a2 2 0 0 1 2 2v11a2 2 0 0 1-2 2zM259.995 10A1.991 1.991 0 0 0 258 11.987V18h21v-6a2 2 0 0 0-1.995-2z"/>
  <path fill="#24b47e" d="M258 18v4.994A2.006 2.006 0 0 0 259.995 25h17.01a1.993 1.993 0 0 0 2-1.991V18z"/>
  <path fill="#fcd669" d="M268.5 19.55l-2.645 1.591.7-2.946-2.34-2.186 2.957-.129L268.5 13l1.323 2.88 2.957.129-2.34 2.191.7 2.946z"/>
  <path fill="#f6f9fc" d="M290.995 10A2 2 0 0 0 289 12v4h21v-4a2 2 0 0 0-1.995-2z"/>
  <path fill="none" stroke="#eaeef3" d="M289.5 15.5h20V12a1.5 1.5 0 0 0-1.495-1.5h-17.01A1.5 1.5 0 0 0 289.5 12z"/>
  <path fill="#24b47e" d="M289 15h21v5h-21z"/>
  <path fill="#e25950" d="M289 20v2.995A2.006 2.006 0 0 0 290.995 25h17.01A2 2 0 0 0 310 23v-3zM321.995 10A2 2 0 0 0 320 12v3h21v-2.995A2.006 2.006 0 0 0 339.005 10z"/>
  <path fill="#fcd669" d="M320 15h21v5h-21z"/>
  <path fill="#24b47e" d="M320 20v2.995A2.006 2.006 0 0 0 321.995 25h17.01A2 2 0 0 0 341 23v-3z"/>
  <path fill="#efc65e" d="M320 15h1v5h-1zm20 0h1v5h-1z"/>
  <path fill="#24b47e" d="M353 10h17a2 2 0 0 1 2 2v11a2 2 0 0 1-2 2h-17a2 2 0 0 1-2-2V12a2 2 0 0 1 2-2z"/>
  <path fill="#fcd669" d="M362 12l9 6-9 6-9-6z"/>
  <path fill="#43458b" d="M358.051 16.993a3.476 3.476 0 0 0 5.715 3.155 8.588 8.588 0 0 0-5.716-3.155zm6.523 2.147a3.484 3.484 0 0 0-6.114-3.34 9.848 9.848 0 0 1 6.114 3.34z"/>
  <path fill="#fff" d="M358.46 15.8a3.451 3.451 0 0 0-.408 1.195 8.588 8.588 0 0 1 5.714 3.155 3.49 3.49 0 0 0 .808-1.008 9.848 9.848 0 0 0-6.114-3.342z"/>
  <path fill="#f6f9fc" d="M387 10h11v15h-11z"/>
  <path fill="#e25950" d="M398 11h-11v-1h11zm-11 13h11v1h-11z" opacity=".1" style="isolation:isolate"/>
  <path fill="#e25950" d="M392.045 20.97v-1.974l-1.4-.008.177-.819-1.822-.277.647-1.2-.58-1.585 1.593.634.471-1.818.7.356L392.5 13l.76 1.264.621-.286.3 1.757 1.773-.557-.545 1.47.6 1.235-1.76.287.161.811-1.442-.014.008 1.985zM388 25h-4a2 2 0 0 1-2-2V12a2 2 0 0 1 2-2h4zm13 0h-4V10h4a2 2 0 0 1 2 2v11a2 2 0 0 1-2 2z"/>
  <rect width="21" height="15" x="413" y="10" fill="#fcd669" rx="3" ry="3"/>
  <path fill="#45b2e8" d="M414.992 10A1.99 1.99 0 0 0 413 11.988V20l15-10z"/>
  <circle cx="416" cy="13" r="1" fill="#fcd669"/>
  <path fill="#45b2e8" d="M434 23a2 2 0 0 1-1.992 2H419l15-10z"/>
  <path fill="#e25950" d="M432 10h-1l-18 12v1a2 2 0 0 0 2 2h1l18-12v-1a2 2 0 0 0-2-2z"/>
  <path fill="#fcd669" d="M463 10h-3l-15.393 14.431A1.99 1.99 0 0 0 446 25h3l15.393-14.431A1.99 1.99 0 0 0 463 10z"/>
  <path fill="#24b47e" d="M446 10a2 2 0 0 0-2 2v11a1.991 1.991 0 0 0 .607 1.431L460 10z"/>
  <path fill="#e25950" d="M449 25h14a2 2 0 0 0 2-2V12a1.991 1.991 0 0 0-.607-1.431zM477 10h17a2 2 0 0 1 2 2v11a2 2 0 0 1-2 2h-17a2 2 0 0 1-2-2V12a2 2 0 0 1 2-2z"/>
  <path fill="#fff" d="M490 19h-3v3h-3v-3h-3v-3h3v-3h3v3h3z"/>
  <path fill="#f7f7f7" d="M514.5 18.5v-8h10.492A1.5 1.5 0 0 1 526.5 12v6.5z"/>
  <path fill="#e9ebf0" d="M524.991 11A1 1 0 0 1 526 12v6h-11v-7h9.992m0-1H514v9h13v-7a2 2 0 0 0-2.009-2z"/>
  <path fill="#e25950" d="M506 18v4.994A2.006 2.006 0 0 0 507.995 25h17.01a1.993 1.993 0 0 0 2-1.991V18z"/>
  <path fill="#43458b" d="M508 10a1.993 1.993 0 0 0-2 1.989V18h9v-8z"/>
  <path fill="#fff" d="M512.34 13.422h-1.169a.162.162 0 0 1-.154-.112l-.362-1.112a.162.162 0 0 0-.31 0l-.36 1.111a.162.162 0 0 1-.155.113h-1.17a.162.162 0 0 0-.1.294l.946.687a.162.162 0 0 1 .058.182l-.354 1.115a.162.162 0 0 0 .25.182l.946-.634a.162.162 0 0 1 .191 0l.946.634a.162.162 0 0 0 .25-.182l-.361-1.111a.162.162 0 0 1 .059-.183l.946-.687a.162.162 0 0 0 .06-.182.165.165 0 0 0-.156-.114z"/>
  <path fill="#24b47e" d="M12.006 35A2 2 0 0 0 10 36.992v11.016A1.992 1.992 0 0 0 11.992 50H17V35z"/>
  <path fill="#fcd669" d="M24 35v15h4.994A2 2 0 0 0 31 48.008V36.992A1.992 1.992 0 0 0 29.008 35H24z"/>
  <path fill="#e25950" d="M16 35h9v15h-9z"/>
  <path fill="#fcd669" d="M23.625 41.3l-2.014.005a.28.28 0 0 1-.267-.194L20.72 39.2a.28.28 0 0 0-.534 0l-.622 1.916a.28.28 0 0 1-.266.194h-2.015a.28.28 0 0 0-.165.507L18.748 43a.28.28 0 0 1 .1.314l-.622 1.916a.28.28 0 0 0 .432.314l1.63-1.093a.28.28 0 0 1 .33 0l1.63 1.093a.28.28 0 0 0 .432-.314l-.624-1.916a.28.28 0 0 1 .1-.314l1.63-1.185a.28.28 0 0 0 .1-.313.284.284 0 0 0-.261-.202z"/>
  <rect width="21" height="15" x="41" y="35" fill="#e25950" rx="2" ry="2"/>
  <path fill="#fcd669" d="M53.5 38a.5.5 0 1 1-.5.5.5.5 0 0 1 .5-.5zM54.5 40a.5.5 0 1 1-.5.5.5.5 0 0 1 .5-.5zM54.5 42a.5.5 0 1 1-.5.5.5.5 0 0 1 .5-.5zM53.5 44a.5.5 0 1 1-.5.5.5.5 0 0 1 .5-.5zM47.471 43.588L45.013 45l.609-2.757-1.651-2.068 2.48-.138 1.02-2.137 1.021 2.137 2.479.138-1.651 2.068.689 2.757zM74 35a1.993 1.993 0 0 0-2 1.991V42h21v-4.994A2.006 2.006 0 0 0 91 35z"/>
  <path fill="#43458b" d="M72 42h21v4H72z"/>
  <path fill="#e25950" d="M72 46v2a2 2 0 0 0 2 2h17.01a1.992 1.992 0 0 0 2-1.989V46z"/>
  <path fill="#0172c6" d="M124 38h-21v-1a2 2 0 0 1 2-2h17a2 2 0 0 1 2 2z"/>
  <path fill="#f9f9f9" d="M103.02 38h21v2h-21zm0 7h21v2h-21z"/>
  <path fill="#0172c6" d="M103 47h21v1a2 2 0 0 1-2 2h-17a2 2 0 0 1-2-2z"/>
  <path fill="#e25950" d="M103 40h21v5h-21z"/>
  <path fill="#f9f9f9" d="M107.52 40a2.5 2.5 0 1 0 .02 0zm0 4a1.5 1.5 0 1 1 1.48-1.519v.059a1.5 1.5 0 0 1-1.48 1.46z"/>
  <circle cx="107.52" cy="42.54" r="1.5" fill="#0172c6"/>
  <path fill="#f6f9fc" d="M154 42v-5a1 1 0 0 0-1-1h-17a.981.981 0 0 0-.325.066L145 42zm-19.335 7.48a1.991 1.991 0 0 0 .6.375 2 2 0 0 1-.6-.375z"/>
  <path fill="#8898aa" d="M134.665 49.48a1.991 1.991 0 0 0 .6.375 2 2 0 0 1-.6-.375z" opacity=".2" style="isolation:isolate"/>
  <path fill="#f6f9fc" d="M153 35h-17a1.982 1.982 0 0 0-1.29.484.788.788 0 0 1 .135.054l.83.528A.981.981 0 0 1 136 36h17a1 1 0 0 1 1 1v5h1v-5a2 2 0 0 0-2-2z"/>
  <path fill="#8898aa" d="M153 35h-17a1.982 1.982 0 0 0-1.29.484.788.788 0 0 1 .135.054l.83.528A.981.981 0 0 1 136 36h17a1 1 0 0 1 1 1v5h1v-5a2 2 0 0 0-2-2z" opacity=".2" style="isolation:isolate"/>
  <path fill="#e25950" d="M135.995 50H136a1.988 1.988 0 0 1-.739-.145 1.966 1.966 0 0 0 .734.145zM153 50h.005a1.991 1.991 0 0 0 2-1.987V48A2 2 0 0 1 153 50z"/>
  <path fill="#e25950" d="M154 42h-9l-9.456 6.877-.735.535a.774.774 0 0 1-.143.067A1.982 1.982 0 0 0 136 50h17a2 2 0 0 0 2-2v-6z"/>
  <path fill="#43458b" d="M134.04 48.4c-.008-.04-.006-.085-.012-.128.006.043 0 .087.013.128zm.035.111a1.99 1.99 0 0 0 .59.966 1.994 1.994 0 0 1-.59-.963zM134 48a1.955 1.955 0 0 0 .028.273A1.97 1.97 0 0 1 134 48zm.075.514c-.01-.037-.026-.072-.034-.11.008.038.024.073.034.11z"/>
  <path fill="#43458b" d="M135.675 36.066l-.83-.528a.788.788 0 0 0-.136-.054A1.986 1.986 0 0 0 134 37v11a1.97 1.97 0 0 0 .028.275c.006.043 0 .087.013.128s.024.074.034.111a1.994 1.994 0 0 0 .591.965.774.774 0 0 0 .143-.067l.735-.535L145 42z"/>
  <path fill="#e25950" d="M165 39h21v7h-21z"/>
  <path fill="#fcd669" d="M165 48v-3h21v3a2 2 0 0 1-2 2h-17a2 2 0 0 1-2-2z"/>
  <path fill="#333" d="M186 37v3h-21v-3a2 2 0 0 1 2-2h17a2 2 0 0 1 2 2z"/>
  <path fill="#24b47e" d="M196 42v6a2 2 0 0 0 1.995 2H215a1.991 1.991 0 0 0 2-1.987V42z"/>
  <path fill="#45b2e8" d="M196 37v6h21v-6a2 2 0 0 0-2-2h-17a2 2 0 0 0-2 2z"/>
  <path fill="#fff" d="M198.647 36.623c-.91-.62-1.647-.226-1.647.883v9.988c0 1.108.773 1.549 1.719.99L208 43z"/>
  <path fill="#e25950" d="M202.8 41.845h-1.458a.2.2 0 0 1-.193-.14l-.452-1.389a.2.2 0 0 0-.386 0l-.45 1.387a.2.2 0 0 1-.193.14H198.2a.2.2 0 0 0-.118.367l1.18.858a.2.2 0 0 1 .073.227l-.45 1.387a.2.2 0 0 0 .313.228l1.18-.792a.2.2 0 0 1 .238 0l1.18.792a.2.2 0 0 0 .313-.227l-.449-1.383a.2.2 0 0 1 .074-.227l1.18-.858a.2.2 0 0 0 .075-.227.2.2 0 0 0-.194-.143zM229 35h17a2 2 0 0 1 2 2v11a2 2 0 0 1-2 2h-17a2 2 0 0 1-2-2V37a2 2 0 0 1 2-2z"/>
  <path fill="#f6f9fc" d="M248 44h-12v6h-3v-6h-6v-3h6v-6h3v6h12z"/>
  <path fill="#e25950" d="M247 45v-5h1v5zm-15 4h5v1h-5zm0-14h5v1h-5zm-5 5h1v5h-1z" opacity=".1" style="isolation:isolate"/>
  <path fill="#f6f9fc" d="M264 35v15h13.008A1.993 1.993 0 0 0 279 48.008V36.992A1.993 1.993 0 0 0 277.008 35z"/>
  <path fill="#24b47e" d="M260 35a2 2 0 0 0-2 1.992v11.016A1.99 1.99 0 0 0 259.988 50H268V35z"/>
  <path fill="#e25950" d="M268 38.027v1.021a3.486 3.486 0 0 0 0 6.9v1.02a4.5 4.5 0 1 1 0-8.945z"/>
  <path fill="#e25950" d="M271.482 40.4A3.63 3.63 0 0 0 268.6 39a3.5 3.5 0 1 0 0 7 3.63 3.63 0 0 0 2.882-1.4 4.5 4.5 0 1 1 0-4.194z"/>
  <circle cx="270.5" cy="42.5" r="1.5" fill="#e25950"/>
  <path fill="#8898aa" d="M277 36a1 1 0 0 1 1 1v11a1 1 0 0 1-1 1h-9v1h9a2 2 0 0 0 2-2V37a2 2 0 0 0-2-2h-9v1z" opacity=".2" style="isolation:isolate"/>
  <path fill="#ffdd03" d="M291 35h17a2 2 0 0 1 2 2v5h-21v-5a2 2 0 0 1 2-2z"/>
  <path fill="#555abf" d="M289 42h21v4h-21z"/>
  <path fill="#e25950" d="M289 46h21v2a2 2 0 0 1-2 2h-17a2 2 0 0 1-2-2z"/>
  <path fill="#ffdd03" d="M299.5 39a3.5 3.5 0 1 0 3.5 3.5 3.5 3.5 0 0 0-3.5-3.5zm0 6a2.5 2.5 0 1 1 2.5-2.5 2.5 2.5 0 0 1-2.5 2.5z"/>
  <circle cx="299.5" cy="42.5" r="2.5" fill="#6fc242"/>
  <path fill="#45b2e8" d="M321.995 35A2 2 0 0 0 320 37v3h21v-2.995A2.006 2.006 0 0 0 339.005 35z"/>
  <path fill="#f6f9fc" d="M320 44v4a2 2 0 0 0 1.995 2h17.01A2 2 0 0 0 341 48v-4z"/>
  <path fill="#8898aa" d="M339 50h-17a2 2 0 0 1-2-2v-6h1v6a1 1 0 0 0 1 1h17a1 1 0 0 0 1-1v-6h1v6a2 2 0 0 1-2 2z" opacity=".2" style="isolation:isolate"/>
  <path d="M320 40h21v5h-21z"/>
  <path fill="#e25950" d="M352.995 35A2 2 0 0 0 351 37v3h21v-2.995A2.006 2.006 0 0 0 370.005 35z"/>
  <path fill="#fff" d="M351 40h21v5h-21z"/>
  <path d="M351 45v2.995A2.006 2.006 0 0 0 352.995 50h17.01A2 2 0 0 0 372 48v-3zM358 41l3 1-3 2zm7 0v3l-3-2zm-4 2h1v1h-1z"/>
  <path fill="#fcd669" d="M358 41l3 1-3 2zm7 0v3l-3-2zm-4 2h1v1h-1z"/>
  <path fill="#eaeef3" d="M351 40h1v5h-1zm20 0h1v5h-1z"/>
  <path fill="#fcd669" d="M382 38h21v9h-21z"/>
  <path fill="#e25950" d="M382 39v-2a2 2 0 0 1 2-2h17a2 2 0 0 1 2 2v2zm19 11h-17a2 2 0 0 1-2-2v-2h21v2a2 2 0 0 1-2 2z"/>
  <path fill="#f6f9fc" d="M387 40h2v2.5h-2z"/>
  <path fill="#e25950" d="M387 45a2 2 0 0 1-2-2v-.5h2z" opacity=".5" style="isolation:isolate"/>
  <path fill="#e25950" d="M387 45v-2.5h2v.5a2 2 0 0 1-2 2zm-2-5h2v2.5h-2z"/>
  <path fill="#43458b" d="M415 35h17a2 2 0 0 1 2 2v11a2 2 0 0 1-2 2h-17a2 2 0 0 1-2-2V37a2 2 0 0 1 2-2z"/>
  <path fill="#fce883" d="M427.906 43.219a.844.844 0 1 1 .844-.844.843.843 0 0 1-.842.844zm-1.895-3.444a.849.849 0 1 1 1.2-.021l-.01.011a.849.849 0 0 1-1.19.01zm1.165 5.2a.85.85 0 1 1-1.2.051L426 45a.85.85 0 0 1 1.176-.025zm-3.8 2.775a.844.844 0 1 1 .844-.844.844.844 0 0 1-.845.844zm0-9.063a.844.844 0 1 1 .843-.845.843.843 0 0 1-.842.844zm-3.765 7.489a.849.849 0 1 1 1.2-.021l-.01.011a.849.849 0 0 1-1.191.01zm-.036-6.4a.85.85 0 1 1 1.15 0 .85.85 0 0 1-1.151-.001zm.113 2.6a.844.844 0 1 1-.845-.843.843.843 0 0 1 .844.842z"/>
  <path fill="#f6f9fc" d="M446 35h17a2 2 0 0 1 2 2v11a2 2 0 0 1-2 2h-17a2 2 0 0 1-2-2V37a2 2 0 0 1 2-2z"/>
  <path fill="#8898aa" d="M463 50h-17a2 2 0 0 1-2-2V37a2 2 0 0 1 2-2h17a2 2 0 0 1 2 2v11a2 2 0 0 1-2 2zm1-13a1 1 0 0 0-1-1h-17a1 1 0 0 0-1 1v11a1 1 0 0 0 1 1h17a1 1 0 0 0 1-1z" opacity=".25" style="isolation:isolate"/>
  <path fill="#555abf" d="M465 44h-12v6h-3v-6h-6v-3h6v-6h3v6h12z"/>
  <rect width="21" height="15" x="475" y="35" fill="#f6f9fc" rx="2" ry="2"/>
  <path fill="#eaeef3" d="M494 36a1 1 0 0 1 1 1v11a1 1 0 0 1-1 1h-17a1 1 0 0 1-1-1V37a1 1 0 0 1 1-1h17m0-1h-17a2 2 0 0 0-2 2v11a2 2 0 0 0 2 2h17a2 2 0 0 0 2-2V37a2 2 0 0 0-2-2z"/>
  <path fill="#0172c6" d="M496 41h-13.42v-6h-3v6H475v3h4.58v6h3v-6H496z"/>
  <path fill="#e25950" d="M496 42h-14.42v-7h-1v7H475v1h5.58v7h1v-7H496z"/>
  <path fill="#f6f9fc" d="M512 35h9v15h-9z"/>
  <path fill="#8898aa" d="M512 50v-1h9v1zm0-15h9v1h-9z" opacity=".1" style="isolation:isolate"/>
  <path fill="#555abf" d="M508 35h5v15h-5a2 2 0 0 1-2-2V37a2 2 0 0 1 2-2z"/>
  <path fill="#e25950" d="M525 50h-5V35h5a2 2 0 0 1 2 2v11a2 2 0 0 1-2 2z"/>
  <path fill="#24b47e" d="M11.995 60a2 2 0 0 0-2 2v3H31v-2.995A2.006 2.006 0 0 0 29 60z"/>
  <path fill="#fcd669" d="M10 65h21v5H10z"/>
  <path fill="#217ab7" d="M10 70v3a2.006 2.006 0 0 0 1.995 2h17.01a2 2 0 0 0 2-2v-3z"/>
  <path fill="#e9c863" d="M10 65h1v5h-1zm20 0h1v5h-1z"/>
  <path fill="#43458b" d="M61.929 73.5H59.5V75h-16v-1.5h-2.429A1.966 1.966 0 0 1 41 73V62a1.966 1.966 0 0 1 .071-.5H43.5V60h16v1.5h2.429A1.966 1.966 0 0 1 62 62v11a1.966 1.966 0 0 1-.071.5z"/>
  <path fill="#f6f9fc" d="M58.659 60H60a2 2 0 0 1 2 2v.454L58.629 65H62v5h-3.288L62 72.483V73a2 2 0 0 1-2 2h-1.258L54 71.419V75h-5v-3.581L44.258 75H43a2 2 0 0 1-2-2v-.517L44.288 70H41v-5h3.371L41 62.454V62a2 2 0 0 1 2-2h1.341L49 63.519V60h5v3.519z"/>
  <path fill="#e25950" d="M53 69v6h-3v-6h-9v-3h9v-6h3v6h9v3zm.5-3.5v-.218l6.929-5.233a1.99 1.99 0 0 1 1.138.722L55.306 65.5zm-12.291-4.374a2.005 2.005 0 0 1 .9-.906L49.1 65.5H47zM49.5 69.5v.218l-6.929 5.233a1.99 1.99 0 0 1-1.138-.722l6.261-4.729zm12.291 4.374a2 2 0 0 1-.9.906L53.9 69.5H56z"/>
  <path fill="#f6f9fc" d="M74 60h17a2 2 0 0 1 2 2v5.5H72V62a2 2 0 0 1 2-2z"/>
  <path fill="#eaeef3" d="M91 61a1 1 0 0 1 1 1v5.5h1V62a2 2 0 0 0-2-2H74a2 2 0 0 0-2 2v5.5h1V62a1 1 0 0 1 1-1h17"/>
  <path fill="#e25950" d="M76.5 67.5a4 4 0 0 1 8 0zm4 0H72V73a2 2 0 0 0 2 2h17a2 2 0 0 0 2-2v-5.5h-4.5"/>
  <path fill="#fff" d="M84.5 67.5a4 4 0 0 1-8 0z"/>
  <path fill="#f6f9fc" d="M103 64h21v7h-21z"/>
  <path fill="#e25950" d="M105 60a1.992 1.992 0 0 0-2 1.989V64h21v-2a2 2 0 0 0-2-2z"/>
  <path fill="#43458b" d="M103 65h21v5h-21z"/>
  <path fill="#24b47e" d="M103 71v2a2 2 0 0 0 2 2h17.01a1.992 1.992 0 0 0 2-1.989V71z"/>
  <path fill="#555abf" d="M153 60h-17a2 2 0 0 0-2 2v11a2 2 0 0 0 2 2h17a2 2 0 0 0 2-2V62a2 2 0 0 0-2-2z"/>
  <path fill="#f6f9fc" d="M134 64h10v2h-10z"/>
  <path fill="#f6f9fc" d="M140 60v10h-2V60zm4 2h11v2h-11z"/>
  <path fill="#eaeef3" d="M154 62h1v2h-1z"/>
  <path fill="#f6f9fc" d="M144 66h11v2h-11z"/>
  <path fill="#eaeef3" d="M154 66h1v2h-1z"/>
  <path fill="#f6f9fc" d="M134 70h21v2h-21z"/>
  <path fill="#eaeef3" d="M154 70h1v2h-1z"/>
  <path fill="#45b2e8" d="M167.006 60A2 2 0 0 0 165 61.992v11.016A1.992 1.992 0 0 0 166.992 75H172V60zM179 60v15h4.994A2 2 0 0 0 186 73.008V61.992A1.992 1.992 0 0 0 184.008 60H179z"/>
  <path fill="#f6f9fc" d="M172 60h7v15h-7z"/>
  <path fill="#24b47e" d="M175.5 69a1.5 1.5 0 1 1 1.5-1.5 1.5 1.5 0 0 1-1.5 1.5zm0-2a.5.5 0 1 0 .5.5.5.5 0 0 0-.5-.5z"/>
  <path fill="#eaeef3" d="M172 75v-1h7v1zm0-14v-1h7v1z"/>
  <rect width="19" height="13" x="197" y="61" fill="#0172c6" rx="1.77" ry="1.77"/>
  <path fill="#e25950" d="M214.23 61a1.77 1.77 0 0 1 1.77 1.77v9.46a1.77 1.77 0 0 1-1.77 1.77h-15.46a1.77 1.77 0 0 1-1.77-1.77v-9.46a1.77 1.77 0 0 1 1.77-1.77h15.46m0-1h-15.46a2.77 2.77 0 0 0-2.77 2.77v9.46a2.77 2.77 0 0 0 2.77 2.77h15.46a2.77 2.77 0 0 0 2.77-2.77v-9.46a2.77 2.77 0 0 0-2.77-2.77z"/>
  <path fill="#fcd669" d="M207 71h-1l-2-2h5z"/>
  <path fill="#9cdbff" d="M207 64h-1l-2.17 2.35L204 68h5l.21-1.58z"/>
  <path fill="#f6f9fc" d="M204.5 69h1l-1-2z"/>
  <path fill="none" stroke="#0a9362" stroke-miterlimit="10" stroke-width=".5" d="M207 67a4.38 4.38 0 0 1 1 3"/>
  <path fill="#e25950" d="M206.5 64.19c1 .67 2.5 2 2.5 3.31s-1.52 2.63-2.5 3.31c-1-.67-2.5-2-2.5-3.31s1.52-2.63 2.5-3.31m0-1.19s-3.5 2-3.5 4.5 3.5 4.5 3.5 4.5 3.5-2 3.5-4.5-3.5-4.5-3.5-4.5z"/>
  <circle cx="207" cy="67" r="1" fill="#0a9362"/>
  <path fill="#e25950" d="M229 60h17a2 2 0 0 1 2 2v11a2 2 0 0 1-2 2h-17a2 2 0 0 1-2-2V62a2 2 0 0 1 2-2z"/>
  <path fill="#fff" d="M237.31 67.4a2.311 2.311 0 0 1 1.77-1.9c1.389-.542 2.732.89 2.91 1.681-.054.046-.147-.023-.27-.093a.492.492 0 0 0-.56-.032c-.384.259-.466.476-.916.632a1.226 1.226 0 0 1-1.244-.332 1.22 1.22 0 0 0-1.686.044m-.271.441a2.31 2.31 0 0 1-2.55.5c-1.441-.379-1.686-2.326-1.365-3.071.159-.013.136.573.6.589a2.813 2.813 0 0 0 .41-.018 1.552 1.552 0 0 1 .7.046 1.224 1.224 0 0 1 .816 1 1.22 1.22 0 0 0 1.389.956m.36.091a2.311 2.311 0 0 1-.357 2.574c-.827 1.239-2.748.837-3.347.291.039-.156.585.057.75-.374s.11-.657.39-1.043a1.225 1.225 0 0 1 1.209-.446 1.22 1.22 0 0 0 1.355-1m.114-.311a2.311 2.311 0 0 1 2.357 1.094c.943 1.153 0 2.873-.7 3.287-.138-.083.226-.543-.14-.828s-.6-.3-.882-.677a1.224 1.224 0 0 1-.073-1.287 1.22 1.22 0 0 0-.562-1.589m-.541-.119a2.308 2.308 0 0 1-1.223-2.292c-.06-1.489 1.731-2.293 2.537-2.2.06.149-.508.3-.388.744s.3.6.3 1.072a1.225 1.225 0 0 1-.716 1.072 1.218 1.218 0 0 0-.507 1.607"/>
  <path fill="#45b2e8" d="M259.995 60A2 2 0 0 0 258 62v3h21v-2.995A2.006 2.006 0 0 0 277.005 60z"/>
  <path fill="#f6f9fc" d="M258 65h21v5h-21z"/>
  <path fill="#45b2e8" d="M258 70v3a2.006 2.006 0 0 0 1.995 2h17.01A2 2 0 0 0 279 73v-3z"/>
  <path fill="#eaeef3" d="M258 65h1v5h-1zm20 0h1v5h-1z"/>
  <path fill="#45b2e8" d="M268 67.5a.5.5 0 1 1 .5.5.5.5 0 0 1-.5-.5zm-3-1a.5.5 0 1 1 .5.5.5.5 0 0 1-.5-.5zm0 2a.5.5 0 1 1 .5.5.5.5 0 0 1-.5-.5zm6 0a.5.5 0 1 1 .5.5.5.5 0 0 1-.5-.5zm0-2a.5.5 0 1 1 .5.5.5.5 0 0 1-.5-.5z"/>
  <path fill="#43458b" d="M290.995 60A1.991 1.991 0 0 0 289 61.987V68h21v-6a2 2 0 0 0-1.995-2z"/>
  <path fill="#e25950" d="M289 68v4.994A2.006 2.006 0 0 0 290.995 75h17.01a1.993 1.993 0 0 0 2-1.991V68z"/>
  <path fill="#fff" d="M295 65h9v5h-9z"/>
  <path fill="#24b47e" d="M303.9 70h-8.8c.454-1.141 2.408-2 4.4-2s3.947.859 4.4 2zm-5.4-4h2v1l-.983 1-1.017-1z"/>
  <path fill="#fcd669" d="M297 67h1v1h-1zm4 0h1v1h-1zM296 66h1v1h-1zm6 0h1v1h-1z"/>
  <path fill="#e25950" d="M321.995 60A2 2 0 0 0 320 62v3h21v-2.995A2.006 2.006 0 0 0 339.005 60z"/>
  <path fill="#f6f9fc" d="M320 65h21v5h-21z"/>
  <path fill="#24b47e" d="M320 70v3a2.006 2.006 0 0 0 1.995 2h17.01A2 2 0 0 0 341 73v-3z"/>
  <path fill="#eaeef3" d="M320 65h1v5h-1zm20 0h1v5h-1z"/>
  <path fill="#f6f9fc" d="M351 67v6a2 2 0 0 0 1.995 2h17.01A1.991 1.991 0 0 0 372 73.013V67z"/>
  <path fill="none" stroke="#eaeef3" d="M351.5 67.5V73a1.5 1.5 0 0 0 1.495 1.5h17.01a1.491 1.491 0 0 0 1.495-1.487V67.5z"/>
  <path fill="#e25950" d="M352.995 60A1.991 1.991 0 0 0 351 61.987V68h21v-6a2 2 0 0 0-1.995-2z"/>
  <path fill="#f6f9fc" d="M388 60h9v15h-9z"/>
  <path fill="#8898aa" d="M388 75v-1h9v1zm0-15h9v1h-9z" opacity=".1" style="isolation:isolate"/>
  <path fill="#24b47e" d="M384 60h5v15h-5a2 2 0 0 1-2-2V62a2 2 0 0 1 2-2z"/>
  <path fill="#f79a59" d="M401 75h-5V60h5a2 2 0 0 1 2 2v11a2 2 0 0 1-2 2z"/>
  <path fill="#43458b" d="M414.493 60A1.493 1.493 0 0 0 413 61.493V63h21v-1.5a1.5 1.5 0 0 0-1.493-1.5z"/>
  <path fill="#f6f9fc" d="M414 63h19v9h-19z"/>
  <path fill="#43458b" d="M425.125 67.5L424 66h-1l-1.125 1.5L423 69h1zm.75 0L427 69h-2l-1.5 2.5L422 69h-2l1.125-1.5L420 66h2l1.5-2.5L425 66h2zM413 72v1.5a1.5 1.5 0 0 0 1.493 1.5h18.014A1.493 1.493 0 0 0 434 73.507V72z"/>
  <path fill="#eaeef3" d="M413 63h1v9h-1zm20 0h1v9h-1z"/>
  <rect width="21" height="15" x="444" y="60" fill="#e25950" rx="2" ry="2"/>
  <path fill="#f6f9fc" d="M453.57 72.98l1.19-1.62-1.97-2.48 2.85-1.57 2.7.63.5-.87.64-3.09.83-.1.25-.44-1.95.04-.63 3.09-2.5-.87-.97-3.01h-1l-3 1-.5-.67h-.5l1 1.68 3-1.01.5 2.51-2.5 2.08.38 1.02 1.66 1.99.27.41-.46.7.21.58z"/>
  <path fill="#f79a59" d="M476.995 60A2 2 0 0 0 475 62v3h21v-2.995A2.006 2.006 0 0 0 494.005 60z"/>
  <path fill="#fff" d="M475 65h21v5h-21z"/>
  <path fill="#24b47e" d="M475 70v3a2.006 2.006 0 0 0 1.995 2h17.01A2 2 0 0 0 496 73v-3z"/>
  <path fill="#6772e5" d="M485.5 69a1.5 1.5 0 1 1 1.5-1.5 1.5 1.5 0 0 1-1.5 1.5zm0-2a.5.5 0 1 0 .5.5.5.5 0 0 0-.5-.5z"/>
  <path fill="#eaeef3" d="M475 65h1v5h-1zm20 0h1v5h-1z"/>
  <path fill="#e25950" d="M507.995 60A2 2 0 0 0 506 62v3h21v-2.995A2.006 2.006 0 0 0 525.005 60z"/>
  <path fill="#fff" d="M506 65h21v5h-21z"/>
  <path d="M506 70v3a2.006 2.006 0 0 0 1.995 2h17.01A2 2 0 0 0 527 73v-3z"/>
  <path fill="#24b47e" d="M514 66h1v3h-1zm2 0h1v3h-1zm2 0h1v3h-1z"/>
  <path fill="#eaeef3" d="M506 65h1v5h-1zm20 0h1v5h-1z"/>
  <path fill="#24b47e" d="M11.995 85a2 2 0 0 0-2 2v3H31v-3a2.006 2.006 0 0 0-2-2z"/>
  <path fill="#fff" d="M10 90h21v5H10z"/>
  <path fill="#e25950" d="M10 95v3a2.006 2.006 0 0 0 1.995 2h17.01a2 2 0 0 0 2-2v-3z"/>
  <circle cx="20.5" cy="92.5" r="1" fill="none" stroke="#e25950"/>
  <path fill="#fff" d="M11 88.5a.5.5 0 1 1 .5.5.5.5 0 0 1-.5-.5zm2 0a.5.5 0 1 1 .5.5.5.5 0 0 1-.5-.5zm2 0a.5.5 0 1 1 .5.5.5.5 0 0 1-.5-.5zm2 0a.5.5 0 1 1 .5.5.5.5 0 0 1-.5-.5zm2 0a.5.5 0 1 1 .5.5.5.5 0 0 1-.5-.5zm2 0a.5.5 0 1 1 .5.5.5.5 0 0 1-.5-.5zm2 0a.5.5 0 1 1 .5.5.5.5 0 0 1-.5-.5zm2 0a.5.5 0 1 1 .5.5.5.5 0 0 1-.5-.5zm2 0a.5.5 0 1 1 .5.5.5.5 0 0 1-.5-.5zm2 0a.5.5 0 1 1 .5.5.5.5 0 0 1-.5-.5z" opacity=".7" style="isolation:isolate"/>
  <path fill="#fff" d="M11 96.5a.5.5 0 1 1 .5.5.5.5 0 0 1-.5-.5zm2 0a.5.5 0 1 1 .5.5.5.5 0 0 1-.5-.5zm2 0a.5.5 0 1 1 .5.5.5.5 0 0 1-.5-.5zm2 0a.5.5 0 1 1 .5.5.5.5 0 0 1-.5-.5zm2 0a.5.5 0 1 1 .5.5.5.5 0 0 1-.5-.5zm2 0a.5.5 0 1 1 .5.5.5.5 0 0 1-.5-.5zm2 0a.5.5 0 1 1 .5.5.5.5 0 0 1-.5-.5zm2 0a.5.5 0 1 1 .5.5.5.5 0 0 1-.5-.5zm2 0a.5.5 0 1 1 .5.5.5.5 0 0 1-.5-.5zm2 0a.5.5 0 1 1 .5.5.5.5 0 0 1-.5-.5z" opacity=".5" style="isolation:isolate"/>
  <path fill="#eaeef3" d="M10 90h1v5h-1zm20 0h1v5h-1z"/>
  <rect width="21" height="15" x="41" y="85" fill="#0172c6" rx="2" ry="2"/>
  <path fill="#f6f9fc" d="M62 91H48.58v-6h-3v6H41v3h4.58v6h3v-6H62z"/>
  <path fill="#e25950" d="M62 92H47.58v-7h-1v7H41v1h5.58v7h1v-7H62z"/>
  <path fill="#f6f9fc" d="M78 85h9v15h-9z"/>
  <path fill="#8898aa" d="M78 100v-1h9v1zm0-15h9v1h-9z" opacity=".1" style="isolation:isolate"/>
  <path fill="#24b47e" d="M74 85h5v15h-5a2 2 0 0 1-2-2V87a2 2 0 0 1 2-2z"/>
  <path fill="#e25950" d="M91 100h-5V85h5a2 2 0 0 1 2 2v11a2 2 0 0 1-2 2z"/>
  <rect width="21" height="15" x="103" y="85" fill="#f6f9fc" rx="2" ry="2"/>
  <path fill="#e25950" d="M115 87.5c0 .83-1.5 2.5-1.5 2.5s-1.5-1.67-1.5-2.5a1.5 1.5 0 0 1 3 0z"/>
  <path fill="#eaeef3" d="M122 86a1 1 0 0 1 1 1v11a1 1 0 0 1-1 1h-17a1 1 0 0 1-1-1V87a1 1 0 0 1 1-1h17m0-1h-17a2 2 0 0 0-2 2v11a2 2 0 0 0 2 2h17a2 2 0 0 0 2-2V87a2 2 0 0 0-2-2z"/>
  <path fill="#e25950" d="M115.17 92.11l8.52-6.17A2 2 0 0 0 122 85h-.42l-8.14 5.89L105 85a2 2 0 0 0-1.81 1.16l8.53 6-8.72 6.25a2 2 0 0 0 1.4 1.49l9-6.55 9.3 6.5a2 2 0 0 0 1.3-1.59z"/>
  <path fill="#fcd669" d="M154.223 85.428a1.06 1.06 0 0 1-.091.068L144.5 91l-9.632-5.5a1.023 1.023 0 0 1-.091-.068A1.989 1.989 0 0 0 134 87v1l8 4.5-8 4.5v1a1.989 1.989 0 0 0 .777 1.572 1.023 1.023 0 0 1 .091-.068L144.5 94l9.632 5.5a1.06 1.06 0 0 1 .091.068A1.989 1.989 0 0 0 155 98v-1l-8-4.5 8-4.5v-1a1.989 1.989 0 0 0-.777-1.572z"/>
  <path fill="#24b47e" d="M144.5 91l9.632-5.5a1.06 1.06 0 0 0 .091-.068A1.98 1.98 0 0 0 153 85h-17a1.98 1.98 0 0 0-1.223.428 1.023 1.023 0 0 0 .091.068zm0 3l-9.632 5.5a1.023 1.023 0 0 0-.091.068A1.98 1.98 0 0 0 136 100h17a1.98 1.98 0 0 0 1.223-.428 1.06 1.06 0 0 0-.091-.068z"/>
  <path d="M134 88v9l8-4.5zm21 9v-9l-8 4.5z"/>
  <path fill="#f6f9fc" d="M165 90h21v5h-21z"/>
  <path d="M186 87a2.006 2.006 0 0 0-1.995-2H167a1.975 1.975 0 0 0-1.325.513.78.78 0 0 1 .135.063L172 90h14z"/>
  <path fill="#24b47e" d="M165.675 99.485A1.975 1.975 0 0 0 167 100h17.01a2 2 0 0 0 2-2v-3H172l-6.194 4.424a.772.772 0 0 1-.131.06z"/>
  <path fill="#e25950" d="M172 90l-6.194-4.424a.78.78 0 0 0-.135-.063 2 2 0 0 0-.671 1.493V98a2 2 0 0 0 .675 1.49.772.772 0 0 0 .131-.06L172 95l3.5-2.5z"/>
  <circle cx="168.5" cy="92.5" r="1.5" fill="#f6f9fc"/>
  <path fill="#eaeef3" d="M185 90h1v5h-1z"/>
  <path fill="#f6f9fc" d="M198 85h17a2 2 0 0 1 2 2v11a2 2 0 0 1-2 2h-17a2 2 0 0 1-2-2V87a2 2 0 0 1 2-2z"/>
  <path fill="#8898aa" d="M215 100h-17a2 2 0 0 1-2-2V87a2 2 0 0 1 2-2h17a2 2 0 0 1 2 2v11a2 2 0 0 1-2 2zm1-13a1 1 0 0 0-1-1h-17a1 1 0 0 0-1 1v11a1 1 0 0 0 1 1h17a1 1 0 0 0 1-1z" opacity=".2" style="isolation:isolate"/>
  <path fill="#e25950" d="M206.5 89a3.5 3.5 0 1 1-3.5 3.5 3.5 3.5 0 0 1 3.5-3.5z"/>
  <rect width="21" height="15" x="227" y="85" fill="#e25950" rx="2" ry="2"/>
  <path fill="#fedc32" d="M240.5 96a.5.5 0 1 1 .5-.5.5.5 0 0 1-.5.5zm-6-6a.5.5 0 1 1 .5-.5.5.5 0 0 1-.5.5zm6 0a.5.5 0 1 1 .5-.5.5.5 0 0 1-.5.5zm-6 6a.5.5 0 1 1 .5-.5.5.5 0 0 1-.5.5zm3-7a.5.5 0 1 1 .5-.5.5.5 0 0 1-.5.5zm-4 4a.5.5 0 1 1 .5-.5.5.5 0 0 1-.5.5zm4 4a.5.5 0 1 1 .5-.5.5.5 0 0 1-.5.5zm4-4a.5.5 0 1 1 .5-.5.5.5 0 0 1-.5.5zm-4 2a2.5 2.5 0 1 1 2.5-2.5 2.5 2.5 0 0 1-2.5 2.5z"/>
  <rect width="21" height="15" x="258" y="85" fill="#fcd669" rx="3" ry="3"/>
  <rect width="20" height="14" x="258.5" y="85.5" fill="none" stroke="#000" stroke-opacity=".08" rx="3" ry="3"/>
  <path d="M279 88l-18 12h-2a1 1 0 0 1-1-1v-2l18-12h2a1 1 0 0 1 1 1v2z"/>
  <path fill="#24b47e" d="M259.992 85A1.99 1.99 0 0 0 258 86.988V95l15-10z"/>
  <path fill="#e25950" d="M279 98a2 2 0 0 1-1.992 2H264l15-10z"/>
  <circle cx="265.5" cy="94.5" r="1.5" fill="#fff"/>
  <circle cx="271.5" cy="90.5" r="1.5" fill="#fff"/>
  <path fill="#f6f9fc" d="M289 88h21v9h-21z"/>
  <path fill="#43458b" d="M290.493 85A1.493 1.493 0 0 0 289 86.493V88h21v-1.5a1.5 1.5 0 0 0-1.493-1.5z"/>
  <path fill="#e25950" d="M289 89h21v7h-21z"/>
  <path fill="#43458b" d="M289 97v1.5a1.5 1.5 0 0 0 1.493 1.5h18.014A1.493 1.493 0 0 0 310 98.507V97z"/>
  <path fill="#fff" d="M294.5 94a1.5 1.5 0 1 0-1.5-1.5 1.5 1.5 0 0 0 1.5 1.5z"/>
  <path fill="#f6f9fc" d="M322 85h17a2 2 0 0 1 2 2v11a2 2 0 0 1-2 2h-17a2 2 0 0 1-2-2V87a2 2 0 0 1 2-2z"/>
  <path fill="#dfe5eb" d="M321.995 85h17.01A2 2 0 0 1 341 86.992v11.016a1.994 1.994 0 0 1-1.995 1.992h-17.01A2 2 0 0 1 320 98.008V86.992A1.994 1.994 0 0 1 321.995 85zm0 1a1 1 0 0 0-.995 1v11a1 1 0 0 0 .995 1h17.01a1 1 0 0 0 .995-1V87a1 1 0 0 0-.995-1z"/>
  <path fill="#e25950" d="M327 92.5a3.5 3.5 0 1 1 6.663 1.5h-6.326a3.486 3.486 0 0 1-.337-1.5z"/>
  <path fill-opacity=".9" d="M334 88.207V88h1.207l1.293 1.793V90h-1.207zm-9.5 1.586L325.793 88H327v.207L325.707 90H324.5zm9.5 7L335.293 95h1.207v.207L335.207 97H334zm-9.5-1.586V95h1.207L327 96.793V97h-1.207z"/>
  <path fill="#43458b" d="M332.175 91.736a1.733 1.733 0 0 1 1.773 1.37A3.5 3.5 0 0 1 330.57 96a3.668 3.668 0 0 1-3.163-1.86 3.485 3.485 0 0 1-.407-1.61 3.28 3.28 0 0 1 .392-1.53v.154c0 .674 0 2.084 1.692 2.084s1.65-1.502 3.091-1.502z"/>
  <path fill="#24b47e" d="M353 85v5h19v-3a2 2 0 0 0-1.993-2H353z"/>
  <path fill="#f6f9fc" d="M352 90h20v5h-20z"/>
  <path fill="#e25950" d="M353 95v5h17a2 2 0 0 0 2-2v-3z"/>
  <path d="M359 90v5l-5.995 5a2 2 0 0 1-2-1.987V86.992a2 2 0 0 1 2-1.992z"/>
  <path fill="#eaeef3" d="M371 90h1v5h-1z"/>
  <rect width="21" height="15" x="382" y="85" fill="#1cafc8" rx="2" ry="2"/>
  <circle cx="392.5" cy="92.5" r="3.5" fill="#fcd669"/>
  <path fill="#047a9d" fill-opacity=".199" d="M383 88h4v9h-4z" opacity=".78" style="isolation:isolate"/>
  <path fill="#fcd669" d="M384 89h2v1h-2zm0 2h2v1h-2zm0 2h2v1h-2zm0 2h2v1h-2z"/>
  <path fill="#e25950" d="M414.995 85A1.992 1.992 0 0 0 413 86.989V89h21v-2a2 2 0 0 0-1.995-2z"/>
  <path fill="#43458b" d="M413 89h21v7h-21z"/>
  <path fill="#e25950" d="M413 96v2a2 2 0 0 0 1.995 2h17.01A1.992 1.992 0 0 0 434 98.011V96z"/>
  <circle cx="423.5" cy="92.5" r="1.5" fill="#fff"/>
  <path fill="#e25950" d="M445.995 85A1.992 1.992 0 0 0 444 86.989V89h21v-2a2 2 0 0 0-1.995-2z"/>
  <path fill="#f6f9fc" d="M444 89h21v7h-21z"/>
  <path fill="#e25950" d="M444 96v2a2 2 0 0 0 1.995 2h17.01A1.992 1.992 0 0 0 465 98.011V96z"/>
  <path fill="#24b47e" d="M455 94v1h-1v-1h-2l2.5-4 2.5 4z"/>
  <path fill="#eaeef3" d="M444 89h1v7h-1zm20 0h1v7h-1z"/>
  <rect width="21" height="15" x="475" y="85" fill="#45b2e8" rx="2" ry="2"/>
  <path fill="#fff" d="M485.5 87L480 98h11z"/>
  <path d="M485.5 90l-4 8h8z"/>
  <path fill="#fcd669" d="M485.5 93.8L480 98h11z"/>
  <path fill="#555abf" d="M507.995 85A2 2 0 0 0 506 87v3h21v-3a2.006 2.006 0 0 0-1.995-2z"/>
  <path fill="#f6f9fc" d="M506 90h21v5h-21z"/>
  <path fill="#24b47e" d="M506 95v3a2.006 2.006 0 0 0 1.995 2h17.01A2 2 0 0 0 527 98v-3z"/>
  <path d="M516.5 91l-1.856 2.227c-.356.427-.2.773.356.773h3c.552 0 .713-.344.356-.773z"/>
  <path fill="#eaeef3" d="M506 90h1v5h-1zm20 0h1v5h-1z"/>
  <path fill="#fcd669" d="M12 110a2 2 0 0 0-2 2v3h21v-3a2 2 0 0 0-2-2z"/>
  <path fill="#24b47e" d="M10 115h21v5H10z"/>
  <path fill="#e25950" d="M10 120v3a2 2 0 0 0 2 2h17a2 2 0 0 0 2-2v-3z"/>
  <path fill="#f6f9fc" d="M41 114h21v7H41z"/>
  <path fill="#8898aa" d="M61 121v-7h1v7zm-20-7h1v7h-1z" opacity=".1" style="isolation:isolate"/>
  <path fill="#45b2e8" d="M41 123v-3h21v3a2 2 0 0 1-2 2H43a2 2 0 0 1-2-2z"/>
  <path fill="#e25950" d="M62 112v3H41v-3a2 2 0 0 1 2-2h17a2 2 0 0 1 2 2z"/>
  <path fill="#b1372f" d="M74 110a1.992 1.992 0 0 0-2 1.989V116h21v-4a2 2 0 0 0-2-2z"/>
  <path fill="#f8fafc" d="M72 116h21v3H72z"/>
  <path fill="#b1372f" d="M72 119v4a2 2 0 0 0 2 2h17.01a1.992 1.992 0 0 0 2-1.989V119z"/>
  <path fill="#eaeef3" d="M72 116h1v3h-1zm20 0h1v3h-1z"/>
  <rect width="21" height="15" x="103" y="110" fill="#e25950" rx="2" ry="2"/>
  <path fill="none" stroke="#24b47e" stroke-linecap="round" stroke-linejoin="round" d="M113.5 112.5l3 9-8-6h10l-8 6z"/>
  <path fill="#f6f9fc" d="M136.006 110a2 2 0 0 0-2.006 1.992v11.016a1.992 1.992 0 0 0 1.992 1.992H141v-15z"/>
  <path fill="#8898aa" d="M136 111a1 1 0 0 0-1 1v11a1 1 0 0 0 1 1h9v1h-9a2 2 0 0 1-2-2v-11a2 2 0 0 1 2-2h9v1z" opacity=".2" style="isolation:isolate"/>
  <path fill="#e25950" d="M153.14 110a2.1 2.1 0 0 1 1.86 2.276V118h-14v-8z"/>
  <path fill="#24b47e" d="M155 123.257a1.805 1.805 0 0 1-1.86 1.743H141v-7h14z"/>
  <rect width="21" height="15" x="165" y="110" fill="#fcd669" rx="2" ry="2"/>
  <path fill="#e25950" d="M185 116.143l1-.143v-3.757l-1 .382-6.5 2.477-.47-.883 4.58-3.219 1.418-1H177l-.25 1-.75 3h-1l-.75-3-.25-1h-6.962l1.422 1 4.576 3.22-.47.882L166 112.6l-.967-.368-.03-.259v4.029l1 .143 6 .857v1l-6 .857L165 119v4c0 .03.008.059.009.09l.024-.236.967-.37 6.566-2.5.47.883-4.457 3.133-1.422 1H174l.25-1 .75-3h1l.75 3 .25 1h6.913l-1.421-1-4.459-3.136.47-.883 6.5 2.477 1 .382V119l-1-.143L179 118v-1zM175.5 120a2.5 2.5 0 1 1 2.5-2.5 2.5 2.5 0 0 1-2.5 2.5z"/>
  <path fill="#24b47e" d="M198.006 110a2 2 0 0 0-2.006 1.992v11.016a1.992 1.992 0 0 0 1.992 1.992H203v-15z"/>
  <path fill="#e25950" d="M210 110v15h4.994a2 2 0 0 0 2.006-1.992v-11.016a1.992 1.992 0 0 0-1.992-1.992H210z"/>
  <path fill="#fcd669" d="M203 110h7v15h-7zM228.995 110a2 2 0 0 0-2 2v3h21v-3a2.006 2.006 0 0 0-1.995-2z"/>
  <path fill="#24b47e" d="M227 115h21v5h-21z"/>
  <path fill="#e25950" d="M227 120v3a2.006 2.006 0 0 0 1.995 2H246a2 2 0 0 0 2-2v-3z"/>
  <path fill="#fff" d="M241.633 116l-2.625.006a.364.364 0 0 1-.347-.253l-.813-2.5a.364.364 0 0 0-.7 0l-.811 2.5a.364.364 0 0 1-.347.253h-2.626a.364.364 0 0 0-.215.661l2.124 1.544a.364.364 0 0 1 .132.409l-.81 2.5a.364.364 0 0 0 .562.41l2.124-1.426a.364.364 0 0 1 .43 0l2.125 1.425a.364.364 0 0 0 .563-.409l-.813-2.5a.364.364 0 0 1 .132-.41l2.125-1.543a.364.364 0 0 0 .134-.409.37.37 0 0 0-.35-.257z"/>
  <path fill="#8898aa" d="M277 125h-17a2 2 0 0 1-2-2v-11a2 2 0 0 1 2-2h17a2 2 0 0 1 2 2v11a2 2 0 0 1-2 2zm1-13a1 1 0 0 0-1-1h-17a1 1 0 0 0-1 1v11a1 1 0 0 0 1 1h17a1 1 0 0 0 1-1z" opacity=".2" style="isolation:isolate"/>
  <path fill="#e25950" d="M268 110v15h9.008a1.993 1.993 0 0 0 1.992-1.992v-11.016a2 2 0 0 0-1.992-1.992z"/>
  <path fill="#9c9b9a" fill-opacity=".5" d="M264 114h2v2h-2v2h-2v-2h-2v-2h2v-2h2z"/>
  <path fill="#f6f9fc" d="M295 110h9v15h-9z"/>
  <path fill="#8898aa" d="M295 125v-1h9v1zm0-15h9v1h-9z" opacity=".1" style="isolation:isolate"/>
  <path fill="#24b47e" d="M291 110h5v15h-5a2 2 0 0 1-2-2v-11a2 2 0 0 1 2-2z"/>
  <path fill="#e25950" d="M308 125h-5v-15h5a2 2 0 0 1 2 2v11a2 2 0 0 1-2 2z"/>
  <path fill="#24b47e" d="M297.575 118a1.913 1.913 0 0 0 3.827 0h.852v.014a2.753 2.753 0 0 1-5.505.1V118z"/>
  <path fill="#b5562b" d="M299.5 116a1.5 1.5 0 1 1-1.5 1.5 1.5 1.5 0 0 1 1.5-1.5z"/>
  <path fill="#e25950" d="M339 125h-17a2 2 0 0 1-2-2v-7h8v-6h11a2 2 0 0 1 2 2v11a2 2 0 0 1-2 2z"/>
  <path fill="#f6f9fc" d="M320 121h21v1h-21zm0-2h21v1h-21zm0-2h21v1h-21zm8-2h13v1h-13zm0-2h13v1h-13zm0-2h12.723a1.987 1.987 0 0 1 .277 1h-13zm12.723 13h-20.446a1.986 1.986 0 0 1-.277-1h21a1.987 1.987 0 0 1-.277 1z"/>
  <path fill="#e25950" d="M339 125h-17a2 2 0 0 1-2-2v-7h1v7a1 1 0 0 0 1 1h17a1 1 0 0 0 1-1v-11a1 1 0 0 0-1-1h-11v-1h11a2 2 0 0 1 2 2v11a2 2 0 0 1-2 2z" opacity=".2" style="isolation:isolate"/>
  <path fill="#555abf" d="M330 110h-8a2 2 0 0 0-2 2v8h10z"/>
  <path fill="#fcd669" d="M326.5 117.75a2.75 2.75 0 1 1 1.84-4.75 3.5 3.5 0 1 0-2.84 5.5 3.46 3.46 0 0 0 2.84-1.5 2.73 2.73 0 0 1-1.84.75z"/>
  <circle cx="327.5" cy="115" r="1" fill="#fcd669"/>
  <path fill="#f6f9fc" d="M354 125h3l15-10v-2zm12-15l-15 10v2l18-12z"/>
  <path fill="#e25950" d="M369 110l-18 12a3 3 0 0 0 3 3l18-12a3 3 0 0 0-3-3z"/>
  <path fill="#43458b" d="M354 110a3 3 0 0 0-3 3v7l15-10zm-1 4v-2h2v2z"/>
  <path fill="#24b47e" d="M369 125a3 3 0 0 0 3-3v-7l-15 10z"/>
  <path fill="#fcd669" d="M353 112h2v2h-2z"/>
  <path fill="#e25950" d="M383.995 110a2 2 0 0 0-1.995 2v3h21v-3a2.006 2.006 0 0 0-1.995-2z"/>
  <path fill="#fff" d="M382 115h21v5h-21z"/>
  <path fill="#24b47e" d="M382 120v3a2.006 2.006 0 0 0 1.995 2h17.01a2 2 0 0 0 1.995-2v-3z"/>
  <circle cx="392.5" cy="117.5" r="1.5" fill="#e25950"/>
  <path fill="#eaeef3" d="M382 115h1v5h-1zm20 0h1v5h-1z"/>
  <path fill="#24b47e" d="M415.006 110a2 2 0 0 0-2.006 1.992v11.016a1.992 1.992 0 0 0 1.992 1.992H420v-15zM427 110v15h4.994a2 2 0 0 0 2.006-1.992v-11.016a1.992 1.992 0 0 0-1.992-1.992H427z"/>
  <path fill="#f6f9fc" d="M420 110h7v15h-7z"/>
  <path fill="#eaeef3" d="M420 125v-1h7v1zm0-14v-1h7v1z"/>
  <path fill="#43458b" d="M445.995 110a2 2 0 0 0-1.995 2v3h21v-3a2.006 2.006 0 0 0-1.995-2z"/>
  <path fill="#fff" d="M444 115h21v5h-21z"/>
  <path fill="#43458b" d="M444 120v3a2.006 2.006 0 0 0 1.995 2h17.01a2 2 0 0 0 1.995-2v-3z"/>
  <path fill="#fcd669" d="M454.5 119a1.5 1.5 0 1 1 1.5-1.5 1.5 1.5 0 0 1-1.5 1.5zm0-2a.5.5 0 1 0 .5.5.5.5 0 0 0-.5-.5z"/>
  <path fill="#eaeef3" d="M444 115h1v5h-1zm20 0h1v5h-1z"/>
  <path fill="#f6f9fc" d="M475 114h21v7h-21z"/>
  <path fill="#8898aa" d="M495 121v-7h1v7zm-20-7h1v7h-1z" opacity=".1" style="isolation:isolate"/>
  <path fill="#e25950" d="M496 112v3h-21v-3a2 2 0 0 1 2-2h17a2 2 0 0 1 2 2z"/>
  <path fill="#6772e5" d="M475 123v-3h21v3a2 2 0 0 1-2 2h-17a2 2 0 0 1-2-2z"/>
  <path fill="#e25950" d="M508 110h17a2 2 0 0 1 2 2v11a2 2 0 0 1-2 2h-17a2 2 0 0 1-2-2v-11a2 2 0 0 1 2-2z"/>
  <path fill="#f6f9fc" d="M527 119h-12v6h-3v-6h-6v-3h6v-6h3v6h12z"/>
  <path fill="#555abf" d="M526 119v-3h1v3zm-14 5h3v1h-3zm0-14h3v1h-3zm-6 6h1v3h-1z" opacity=".1" style="isolation:isolate"/>
  <path fill="#555abf" d="M527 118h-13v7h-1v-7h-7v-1h7v-7h1v7h13z"/>
  <path fill="#43458b" d="M12 135h17a2 2 0 0 1 2 2v11a2 2 0 0 1-2 2H12a2 2 0 0 1-2-2v-11a2 2 0 0 1 2-2z"/>
  <path fill="#f6f9fc" d="M10 140.664l3.5-2.4 5.425 3.722h-1.766l-3.659-2.51-3.5 2.4zm9-5.569v1.213l-3.5 2.4-4.758-3.264a1.983 1.983 0 0 1 1.12-.444l3.638 2.5z"/>
  <path fill="#e25950" d="M18.909 142l-3.659-2.51-3.659 2.51H10v-.121l5.249-3.6L19 140.85V142zm-5.158-3.278l-3.6-2.47a1.99 1.99 0 0 1 .6-.8l3 2.059L17.409 135H19v.121z"/>
  <path fill="#f6f9fc" d="M19 139.625h-3.375V142h-2.25v-2.375H10v-2.25h3.375V135h2.25v2.375H19z"/>
  <path fill="#e25950" d="M19 139h-4v3h-1v-3h-4v-1h4v-3h1v3h4z"/>
  <path fill="#f6f9fc" d="M26.22 141.44a1.22 1.22 0 1 1 1.186-1.254v.034a1.22 1.22 0 0 1-1.185 1.22zm-2-2a1.22 1.22 0 1 1 1.186-1.254v.034a1.22 1.22 0 0 1-1.186 1.22zm-.78 1.781a1.22 1.22 0 1 1-1.254-1.186h.034a1.22 1.22 0 0 1 1.22 1.186zm.78 3.779a1.22 1.22 0 1 1-1.184 1.255v-.035A1.22 1.22 0 0 1 24.22 145z"/>
  <path fill="#e25950" d="M26.188 140.874a.687.687 0 1 1 .686-.688.687.687 0 0 1-.686.688zm-2 6a.688.688 0 1 1 .687-.689.688.688 0 0 1-.688.688zm0-8a.687.687 0 1 1 .685-.689.687.687 0 0 1-.685.689zm-2 3a.688.688 0 1 1 .617-.336.688.688 0 0 1-.617.336z"/>
  <path fill="#f6f9fc" d="M45 135v6h17v-4a2 2 0 0 0-1.994-2H45z"/>
  <path fill="none" stroke="#eaeef3" d="M61.5 142.5V137a1.5 1.5 0 0 0-1.495-1.5H43"/>
  <path fill="#e25950" d="M46 140v-5h-2.995A2 2 0 0 0 41 136.992v11.016A2 2 0 0 0 43 150h3v-5h16v-5z"/>
  <path fill="#24b47e" d="M46 145v5h14.006A2 2 0 0 0 62 148v-3z"/>
  <path fill="#fff" d="M43.5 137a.5.5 0 1 1-.5.5.5.5 0 0 1 .5-.5z"/>
  <path fill="#f7fafc" d="M73.992 135A1.99 1.99 0 0 0 72 136.988V143h11v-8z"/>
  <path fill="none" stroke="#e6e9ed" d="M72.5 142.5h10v-7h-8.508a1.49 1.49 0 0 0-1.492 1.488v5.512z"/>
  <path fill="#f7fafc" d="M82 142v8h9.008A1.99 1.99 0 0 0 93 148.012V142z"/>
  <path fill="none" stroke="#e6e9ed" d="M82.5 142.5v7h8.508a1.49 1.49 0 0 0 1.492-1.488V142.5z"/>
  <path fill="#e25950" d="M89.792 145.318h-1.153a.16.16 0 0 1-.152-.11l-.357-1.1a.16.16 0 0 0-.305 0l-.357 1.1a.16.16 0 0 1-.152.11h-1.154a.16.16 0 0 0-.094.29l.933.679a.16.16 0 0 1 .058.18l-.356 1.1a.16.16 0 0 0 .247.18l.933-.626a.16.16 0 0 1 .188 0l.934.626a.16.16 0 0 0 .247-.18l-.357-1.1a.16.16 0 0 1 .058-.18l.933-.678a.16.16 0 0 0 .06-.18.163.163 0 0 0-.154-.112z"/>
  <path fill="#217ab7" d="M78.747 138.347h-1.14a.158.158 0 0 1-.15-.11l-.353-1.084a.158.158 0 0 0-.3 0l-.351 1.085a.158.158 0 0 1-.151.11H75.16a.158.158 0 0 0-.093.287l.921.67a.158.158 0 0 1 .058.178l-.352 1.084a.158.158 0 0 0 .245.177l.921-.619a.158.158 0 0 1 .186 0l.923.619a.158.158 0 0 0 .244-.177l-.353-1.086a.158.158 0 0 1 .058-.178l.922-.67a.158.158 0 0 0 .058-.178.16.16 0 0 0-.15-.111zM72 143v4.994A2 2 0 0 0 73.992 150H83v-7z"/>
  <path fill="#e25950" d="M82 135v8h11v-6a2 2 0 0 0-1.992-2zM105.006 135a2 2 0 0 0-2.006 1.992v11.016a1.992 1.992 0 0 0 1.992 1.992H110v-15zM117 135v15h4.994a2 2 0 0 0 2.006-1.992v-11.016a1.992 1.992 0 0 0-1.992-1.992H117z"/>
  <path fill="#f6f9fc" d="M110 135h7v15h-7z"/>
  <path fill="#eaeef3" d="M110 150v-1h7v1zm0-14v-1h7v1z"/>
  <path fill="#e25950" d="M155 136.992a2 2 0 0 0-1.995-1.992H136a1.979 1.979 0 0 0-1.3.495l19.615 14.01a1.978 1.978 0 0 0 .692-1.5z"/>
  <path d="M134.693 135.495a1.978 1.978 0 0 0-.693 1.5v11.016a2 2 0 0 0 1.995 1.989H153a1.979 1.979 0 0 0 1.3-.495z"/>
  <path fill="#fff" fill-opacity=".8" d="M140.5 143a.5.5 0 1 1-.5.5.5.5 0 0 1 .5-.5z"/>
  <path fill="#fff" fill-opacity=".3" d="M139.5 145a.5.5 0 1 1-.5.5.5.5 0 0 1 .5-.5z"/>
  <path fill="#fff" fill-opacity=".9" d="M137.5 144a.5.5 0 1 1-.5.5.5.5 0 0 1 .5-.5zM138.5 147a.5.5 0 1 1-.5.5.5.5 0 0 1 .5-.5z"/>
  <path fill="#fff" d="M138.5 141a.5.5 0 1 1-.5.5.5.5 0 0 1 .5-.5z"/>
  <path fill="#fac92e" d="M149 139v-1.292c0-.557.353-.75.8-.418l2.892 2.12c.444.326.356.59-.2.59H150v1.506c0 .536-.35.721-.784.384l-2.932-2.28c-.43-.335-.337-.61.215-.61z"/>
  <path fill="#f6f9fc" d="M166.418 135.1l9.582 7.4-9.582 7.4A1.994 1.994 0 0 1 165 148v-11a1.994 1.994 0 0 1 1.418-1.9z"/>
  <path fill="#8898aa" d="M167 136a1 1 0 0 0-1 1v11a1 1 0 0 0 1 1h1v1h-1a2 2 0 0 1-2-2v-11a2 2 0 0 1 2-2h1v1z" opacity=".2" style="isolation:isolate"/>
  <path fill="#e25950" d="M184 150h-17a1.982 1.982 0 0 1-1.291-.484L176 142.5l-.733-.5H186v6a2 2 0 0 1-2 2z"/>
  <path fill="#555abf" d="M165.709 135.484A1.982 1.982 0 0 1 167 135h17a2 2 0 0 1 2 2v5.5h-10z"/>
  <path fill="#f5be58" d="M169.507 140a2.5 2.5 0 1 1-2.493 2.511v-.011a2.5 2.5 0 0 1 2.492-2.5z"/>
  <path fill="#f6f9fc" d="M198 135h17a2 2 0 0 1 2 2v11a2 2 0 0 1-2 2h-17a2 2 0 0 1-2-2v-11a2 2 0 0 1 2-2z"/>
  <path fill="#8898aa" d="M215 150h-17a2 2 0 0 1-2-2v-11a2 2 0 0 1 2-2h17a2 2 0 0 1 2 2v11a2 2 0 0 1-2 2zm1-13a1 1 0 0 0-1-1h-17a1 1 0 0 0-1 1v11a1 1 0 0 0 1 1h17a1 1 0 0 0 1-1z" opacity=".2" style="isolation:isolate"/>
  <path fill="#24b47e" d="M202 135v15h13.008a1.993 1.993 0 0 0 1.992-1.992v-11.016a1.993 1.993 0 0 0-1.992-1.992z"/>
  <path fill="#fff" d="M208.937 137a4.206 4.206 0 0 0-2.071 3.566 4.488 4.488 0 0 0 4.664 4.29 4.946 4.946 0 0 0 2.47-.65 4.73 4.73 0 0 1-4.253 2.794 4.9 4.9 0 0 1-4.747-5.037 4.962 4.962 0 0 1 3.937-4.963z"/>
  <circle cx="212" cy="140" r="1" fill="#fff"/>
  <path fill="#fff" d="M228 135.89h19v6.354h-19z"/>
  <path fill="none" stroke="#dfe5eb" d="M227.5 142.5h20V137a1.5 1.5 0 0 0-1.495-1.5H229a1.491 1.491 0 0 0-1.5 1.487v5.513z"/>
  <path fill="#e25950" d="M227 142v6a2 2 0 0 0 1.995 2H246a1.991 1.991 0 0 0 2-1.987V142zM260 135a2 2 0 0 0-2 2v3h21v-3a2 2 0 0 0-2-2z"/>
  <path fill="#f6f9fc" d="M258 140h21v5h-21z"/>
  <path fill="#eaeef3" d="M278 140h1v5h-1z"/>
  <path fill="#e25950" d="M258 145v3a2 2 0 0 0 2 2h17a2 2 0 0 0 2-2v-3z"/>
  <path fill="#555abf" d="M260 150l8-7.5-8-7.5a2 2 0 0 0-2 2v11a2 2 0 0 0 2 2z"/>
  <path fill="#f6f9fc" d="M261.5 140.29l.65 1.32 1.45.21-1.05 1.02.25 1.45-1.3-.68-1.3.68.25-1.45-1.05-1.02 1.45-.21.65-1.32z"/>
  <path d="M291 135a2 2 0 0 0-2 2v3h21v-3a2 2 0 0 0-2-2z"/>
  <path fill="#f6f9fc" d="M289 140h21v5h-21z"/>
  <path fill="#eaeef3" d="M309 140h1v5h-1z"/>
  <path fill="#0a9362" d="M289 145v3a2 2 0 0 0 2 2h17a2 2 0 0 0 2-2v-3z"/>
  <path fill="#e25950" d="M291 150l8-7.5-8-7.5a2 2 0 0 0-2 2v11a2 2 0 0 0 2 2z"/>
  <path fill="#24b47e" d="M328 150h-6a2 2 0 0 1-2-2v-11a2 2 0 0 1 2-2h6z"/>
  <path fill="#e25950" d="M339 150h-12v-15h12a2 2 0 0 1 2 2v11a2 2 0 0 1-2 2z"/>
  <path fill="#fcd669" d="M330 142.5a3.531 3.531 0 1 0-3.53 3.532A3.531 3.531 0 0 0 330 142.5z"/>
  <path fill="#e25950" d="M326.425 140a2.5 2.5 0 1 1-2.425 2.575v-.075a2.5 2.5 0 0 1 2.425-2.5z"/>
  <path fill="#f6f9fc" d="M325.5 141h2v2.031a1 1 0 0 1-2 0z"/>
  <path fill="#e25950" d="M352.995 135a2 2 0 0 0-1.995 2v3h21v-2.995a2.006 2.006 0 0 0-1.995-2.005z"/>
  <path fill="#fff" d="M351 140h21v5h-21z"/>
  <path fill="#43458b" d="M351 145v2.995a2.006 2.006 0 0 0 1.995 2.005h17.01a2 2 0 0 0 1.995-2v-3z"/>
  <path fill="#e25950" d="M361.5 144a1.5 1.5 0 1 1 1.5-1.5 1.5 1.5 0 0 1-1.5 1.5zm0-2a.5.5 0 1 0 .5.5.5.5 0 0 0-.5-.5z"/>
  <path fill="#eaeef3" d="M351 140h1v5h-1zm20 0h1v5h-1z"/>
  <path fill="#f6f9fc" d="M384 135h17a2 2 0 0 1 2 2v11a2 2 0 0 1-2 2h-17a2 2 0 0 1-2-2v-11a2 2 0 0 1 2-2z"/>
  <path fill="#8898aa" d="M401 150h-17a2 2 0 0 1-2-2v-11a2 2 0 0 1 2-2h17a2 2 0 0 1 2 2v11a2 2 0 0 1-2 2zm1-13a1 1 0 0 0-1-1h-17a1 1 0 0 0-1 1v11a1 1 0 0 0 1 1h17a1 1 0 0 0 1-1z" opacity=".2" style="isolation:isolate"/>
  <path fill="#b1372f" d="M391 150h-2l-1-.5 2-1-2-1 2-1-2-1 2-1-2-1 2-1-2-1 2-1-2-1 2-1-2-1 2-1-2-1 1-.5h11.991a2 2 0 0 1 2.009 1.992v11.016a2 2 0 0 1-2.009 1.992z"/>
  <path fill="#6772e5" d="M432 150h-15.567l6.957-15H432a2 2 0 0 1 2 2v11a2 2 0 0 1-2 2z"/>
  <path fill="#6772e5" d="M417.438 150H415a2 2 0 0 1-2-2v-11a2 2 0 0 1 2-2h11.1z"/>
  <path fill="#fff" d="M420 146l6.856-1.453V139L420 140.453z"/>
  <path fill="#43458b" d="M446.006 135a2 2 0 0 0-2.006 1.992v11.016a1.992 1.992 0 0 0 1.992 1.992H451v-15z"/>
  <path fill="#e25950" d="M458 135v15h4.994a2 2 0 0 0 2.006-1.992v-11.016a1.992 1.992 0 0 0-1.992-1.992H458z"/>
  <path fill="#fcd669" d="M451 135h7v15h-7z"/>
  <path fill="#f6f9fc" d="M476.995 135a2 2 0 0 0-1.995 2v4h21v-4a2 2 0 0 0-1.995-2z"/>
  <path fill="none" stroke="#dfe5eb" d="M475.5 140.5h20V137a1.5 1.5 0 0 0-1.495-1.5h-17.01a1.5 1.5 0 0 0-1.495 1.5z"/>
  <path fill="#43458b" d="M475 140h21v5h-21z"/>
  <path fill="#e25950" d="M475 145v2.995a2.006 2.006 0 0 0 1.995 2.005h17.01a2 2 0 0 0 1.995-2v-3z"/>
  <path fill="#45b2e8" d="M507.995 135a1.993 1.993 0 0 0-2 1.991V142h21v-4.994a2.006 2.006 0 0 0-1.99-2.006z"/>
  <path fill="#fcd669" d="M506 142h21v4h-21z"/>
  <path fill="#24b47e" d="M506 146v2a2 2 0 0 0 1.995 2h17.01a1.992 1.992 0 0 0 1.995-1.989V146z"/>
  <circle cx="523.5" cy="138.5" r="1.5" fill="#fcd669"/>
  <rect width="21" height="15" x="10" y="160" fill="#24b47e" rx="2" ry="2"/>
  <path fill="#fff" d="M25 170h1l-.5 1H25v1l-1-.5v-.5h-6.508L15 170h9v-.5l1-.5zM24 164l1.657.146L26 165v2h-1l-1.492-.528L23 167v-3zm-3.283.375L22 164v3l-1.283-.488L19 167l.172-1.858L19 164zM17 164l1 1v2l-.764-.343L16 167l-.994-.006.183-2.917z"/>
  <path fill="#217ab7" d="M43 160h17a2 2 0 0 1 2 2v11a2 2 0 0 1-2 2H43a2 2 0 0 1-2-2v-11a2 2 0 0 1 2-2z"/>
  <path fill="#fcd669" d="M62 169H50v6h-3v-6h-6v-3h6v-6h3v6h12z"/>
  <path fill="#ea2c3f" d="M74 160a1.991 1.991 0 0 0-2 1.987V168h21v-6a2 2 0 0 0-2-2z"/>
  <path fill="#f6f9fc" d="M93 167v6a2 2 0 0 1-2 2H74a2 2 0 0 1-2-2v-6z"/>
  <path fill="#8898aa" d="M91 175H74a2 2 0 0 1-2-2v-6h1v6a1 1 0 0 0 1 1h17a1 1 0 0 0 1-1v-6h1v6a2 2 0 0 1-2 2z" opacity=".2" style="isolation:isolate"/>
  <path fill="#e25950" d="M72 168v-6a2 2 0 0 1 2-2h17a2 2 0 0 1 2 2v6z"/>
  <path fill="#f6f9fc" d="M76.368 163.96a2.367 2.367 0 0 0 2.354 2.367 2.96 2.96 0 1 1 0-4.734 2.367 2.367 0 0 0-2.354 2.367zm6.194.415a.594.594 0 1 1 .57-.618v.025a.594.594 0 0 1-.57.593zm-1.5-1.187a.594.594 0 1 1 .6-.593.594.594 0 0 1-.6.593zm-.281 2.375a.594.594 0 1 1-.594-.594.594.594 0 0 1 .594.594zm-1.187-1.188a.594.594 0 1 1 .594-.594.594.594 0 0 1-.594.594zm2.375.594a.593.593 0 1 1-.593.593.593.593 0 0 1 .593-.593zM105 160a2 2 0 0 0-2 2v3h21v-3a2 2 0 0 0-2-2z"/>
  <path fill="#555abf" d="M103 165h21v5h-21z"/>
  <path fill="#e25950" d="M103 170v3a2 2 0 0 0 2 2h17a2 2 0 0 0 2-2v-3z"/>
  <path fill="#e25950" d="M112 164v4.5a2.5 2.5 0 0 1-5 0V164h5m1-1h-7v5.5a3.5 3.5 0 0 0 7 0z"/>
  <path fill="#555abf" d="M107 164h5v4.5a2.5 2.5 0 0 1-5 0z"/>
  <path fill="#f6f9fc" d="M109.5 171a2.5 2.5 0 0 1-2.5-2.5l2.5-1.5 2.5 1.5a2.5 2.5 0 0 1-2.5 2.5z"/>
  <circle cx="108.5" cy="165.5" r=".5" fill="#f6f9fc"/>
  <circle cx="110.5" cy="165.5" r=".5" fill="#f6f9fc"/>
  <path fill="#eaeef3" d="M122 161a1 1 0 0 1 1 1v3h1v-3a2 2 0 0 0-2-2h-17a2 2 0 0 0-2 2v3h1v-3a1 1 0 0 1 1-1h17"/>
  <path fill="#f6f9fc" d="M136 160a2 2 0 0 0-2 2v3h21v-3a2 2 0 0 0-2-2z"/>
  <path fill="#555abf" d="M134 165h21v5h-21z"/>
  <path fill="#e25950" d="M134 170v3a2 2 0 0 0 2 2h17a2 2 0 0 0 2-2v-3z"/>
  <path fill="#f6f9fc" d="M137 163h7v5.5a3.5 3.5 0 0 1-7 0z"/>
  <path fill="#ed1c24" d="M138 164h5v4.5a2.5 2.5 0 0 1-5 0z"/>
  <path fill="#555abf" d="M140.5 171a2.5 2.5 0 0 1-2.5-2.5h5a2.5 2.5 0 0 1-2.5 2.5z"/>
  <path fill="#eaeef3" d="M153 161a1 1 0 0 1 1 1v3h1v-3a2 2 0 0 0-2-2h-17a2 2 0 0 0-2 2v3h1v-3a1 1 0 0 1 1-1h17"/>
  <path fill="#f6f9fc" d="M140 164.5h1v4h-1z"/>
  <path fill="#f6f9fc" d="M139 165h3v1h-3zm-.5 2h4v1h-4z"/>
  <path fill="#24b47e" d="M166.995 160a2 2 0 0 0-2 2v3h21v-2.995a2.006 2.006 0 0 0-1.99-2.005z"/>
  <path fill="#fff" d="M165 165h21v5h-21z"/>
  <path fill="#217ab7" d="M165 170v2.995a2.006 2.006 0 0 0 1.995 2.005H184a2 2 0 0 0 2-2v-3z"/>
  <path fill="#eaeef3" d="M165 165h1v5h-1zm20 0h1v5h-1z"/>
  <path fill="#24b47e" d="M198.006 160a2 2 0 0 0-2.006 1.992v11.016a1.992 1.992 0 0 0 1.992 1.992H203v-15z"/>
  <path fill="#e25950" d="M210 160v15h4.994a2 2 0 0 0 2.006-1.992v-11.016a1.992 1.992 0 0 0-1.992-1.992H210z"/>
  <path fill="#fcd669" d="M203 160h7v15h-7z"/>
  <path fill="#24b47e" d="M208.8 166.667h-1.458a.2.2 0 0 1-.193-.14l-.452-1.387a.2.2 0 0 0-.386 0l-.45 1.386a.2.2 0 0 1-.193.14H204.2a.2.2 0 0 0-.118.368l1.18.857a.2.2 0 0 1 .073.228l-.45 1.387a.2.2 0 0 0 .313.227l1.18-.791a.2.2 0 0 1 .238 0l1.18.791a.2.2 0 0 0 .313-.227l-.452-1.387a.2.2 0 0 1 .074-.228l1.18-.857a.2.2 0 0 0 .075-.227.205.205 0 0 0-.194-.143z"/>
  <rect width="21" height="15" x="227" y="160" fill="#217ab7" rx="2" ry="2"/>
  <path fill="#fff" d="M241.633 166l-2.625.006a.364.364 0 0 1-.347-.253l-.813-2.5a.364.364 0 0 0-.7 0l-.811 2.5a.364.364 0 0 1-.347.253h-2.626a.364.364 0 0 0-.215.661l2.124 1.544a.364.364 0 0 1 .132.409l-.81 2.5a.364.364 0 0 0 .562.41l2.124-1.426a.364.364 0 0 1 .43 0l2.125 1.425a.364.364 0 0 0 .563-.409l-.813-2.5a.364.364 0 0 1 .132-.41l2.125-1.543a.364.364 0 0 0 .134-.409.37.37 0 0 0-.35-.257z"/>
  <path fill="#555abf" d="M259.995 160a2 2 0 0 0-1.995 2v3h21v-2.995a2.006 2.006 0 0 0-1.995-2.005z"/>
  <path fill="#f6f9fc" d="M258 165h21v5h-21z"/>
  <path fill="#eaeef3" d="M258 165h1v5h-1zm20 0h1v5h-1z"/>
  <path fill="#555abf" d="M258 170v2.995a2.006 2.006 0 0 0 1.995 2.005h17.01a2 2 0 0 0 1.995-2v-3z"/>
  <path fill="#efcf57" d="M268.5 169a1.5 1.5 0 1 1 1.5-1.5 1.5 1.5 0 0 1-1.5 1.5zm0-2a.5.5 0 1 0 .5.5.5.5 0 0 0-.5-.5z"/>
  <path fill="#43458b" d="M291.006 160a2 2 0 0 0-2.006 1.992v11.016a1.992 1.992 0 0 0 1.992 1.992H296v-15z"/>
  <path fill="#e25950" d="M303 160v15h4.994a2 2 0 0 0 2.006-1.992v-11.016a1.992 1.992 0 0 0-1.992-1.992H303z"/>
  <path fill="#fcd669" d="M296 160h7v15h-7z"/>
  <path fill="#e25950" d="M341 163h-21v-1a2 2 0 0 1 2-2h17a2 2 0 0 1 2 2z"/>
  <path fill="#f9f9f9" d="M320 163h21v2h-21z"/>
  <path fill="#eaeef3" d="M320 163h1v2h-1z"/>
  <path fill="#f9f9f9" d="M320 170h21v2h-21z"/>
  <path fill="#e25950" d="M320 172h21v1a2 2 0 0 1-2 2h-17a2 2 0 0 1-2-2z"/>
  <path fill="#555abf" d="M320 165h21v5h-21z"/>
  <path fill="#eaeef3" d="M320 170h1v2h-1zm20-7h1v2h-1zm0 7h1v2h-1z"/>
  <path fill="#ca0814" d="M352.995 160a2 2 0 0 0-1.995 2v3h21v-2.995a2.006 2.006 0 0 0-1.995-2.005z"/>
  <path fill="#fff" d="M351 165h21v5h-21z"/>
  <path fill="#24b47e" d="M351 170v2.995a2.006 2.006 0 0 0 1.995 2.005h17.01a2 2 0 0 0 1.995-2v-3z"/>
  <path d="M357 168.5a.5.5 0 1 1 .5.5.5.5 0 0 1-.5-.5zm2-1a.5.5 0 1 1 .5.5.5.5 0 0 1-.5-.5zm2-1a.5.5 0 1 1 .5.5.5.5 0 0 1-.5-.5zm2 1a.5.5 0 1 1 .5.5.5.5 0 0 1-.5-.5zm2 1a.5.5 0 1 1 .5.5.5.5 0 0 1-.5-.5zm-4 0a.5.5 0 1 1 .5.5.5.5 0 0 1-.5-.5z"/>
  <path fill="#fcd669" d="M357 168.5a.5.5 0 1 1 .5.5.5.5 0 0 1-.5-.5zm2-1a.5.5 0 1 1 .5.5.5.5 0 0 1-.5-.5zm2-1a.5.5 0 1 1 .5.5.5.5 0 0 1-.5-.5zm2 1a.5.5 0 1 1 .5.5.5.5 0 0 1-.5-.5zm2 1a.5.5 0 1 1 .5.5.5.5 0 0 1-.5-.5zm-4 0a.5.5 0 1 1 .5.5.5.5 0 0 1-.5-.5z"/>
  <path fill="#eaeef3" d="M351 165h1v5h-1zm20 0h1v5h-1z"/>
  <path fill="#e25950" d="M401 160h-17a1.99 1.99 0 0 0-1.438.615.813.813 0 0 1 .2.116l.643.528L395 167.5l-11.59 6.241-.642.528a.813.813 0 0 1-.206.116A1.99 1.99 0 0 0 384 175h17a2 2 0 0 0 2-2v-11a2 2 0 0 0-2-2z"/>
  <path fill="#fcd669" d="M383.41 173.741L395 167.5l-11.59-6.241L391 167.5z"/>
  <path d="M382.873 160.97l.537.289-.643-.528a.813.813 0 0 0-.206-.116 2.007 2.007 0 0 0-.238.3.623.623 0 0 1 .55.054zm.537 12.771l-.537.289a.623.623 0 0 1-.55.054 2 2 0 0 0 .239.3.813.813 0 0 0 .2-.115z"/>
  <path d="M382.873 174.03l.537-.289L391 167.5l-7.59-6.241-.537-.289a.623.623 0 0 0-.55-.054A1.987 1.987 0 0 0 382 162v11a1.986 1.986 0 0 0 .323 1.084.623.623 0 0 0 .55-.054zM385.5 166a1.5 1.5 0 1 1-1.5 1.5 1.5 1.5 0 0 1 1.5-1.5z"/>
  <circle cx="385.5" cy="167.5" r="1.5" fill="#f7fafc"/>
  <rect width="21" height="15" x="413" y="160" fill="#e25950" rx="2" ry="2"/>
  <path fill="#fff" d="M422.431 163.1a4.359 4.359 0 0 0 .673 8.61 4.5 4.5 0 1 1-.673-8.61z"/>
  <circle cx="424.5" cy="167.5" r="1.5" fill="#fff"/>
  <rect width="21" height="15" x="444" y="160" fill="#e25950" rx="2" ry="2"/>
  <path fill="#555abf" d="M446 160h7v9h-9v-7a2 2 0 0 1 2-2z"/>
  <circle cx="448.5" cy="164.5" r="2.5" fill="#fff"/>
  <path fill="#fcd669" d="M481 175l15-10v-2l-18 12zm9-15l-15 10v2l18-12z"/>
  <path fill="#24b47e" d="M478 160h-1.008a1.99 1.99 0 0 0-1.992 1.988V170l15-10z"/>
  <path fill="#45b2e8" d="M481 175h13.008a2 2 0 0 0 1.992-2v-8z"/>
  <path d="M494 160h-1l-18 12v1a2 2 0 0 0 2 2h1l18-12v-1a2 2 0 0 0-2-2z"/>
  <path fill="#45b2e8" d="M507.995 160a1.991 1.991 0 0 0-1.995 1.987V168h21v-6a2 2 0 0 0-1.995-2z"/>
  <path fill="#fcd669" d="M506 168v4.994a2.006 2.006 0 0 0 1.995 2.006h17.01a1.993 1.993 0 0 0 2-1.991V168z"/>
  <path fill="#e25950" d="M29 200H12a2 2 0 0 1-2-2v-7h8v-6h11a2 2 0 0 1 2 2v11a2 2 0 0 1-2 2z"/>
  <path fill="#f6f9fc" d="M10 196h21v1H10zm0-2h21v1H10zm0-2h21v1H10zm8-2h13v1H18zm0-2h13v1H18zm0-2h12.723a1.987 1.987 0 0 1 .277 1H18zm12.723 13H10.277a1.986 1.986 0 0 1-.277-1h21a1.987 1.987 0 0 1-.277 1z"/>
  <path fill="#e25950" d="M29 200H12a2 2 0 0 1-2-2v-7h1v7a1 1 0 0 0 1 1h17a1 1 0 0 0 1-1v-11a1 1 0 0 0-1-1H18v-1h11a2 2 0 0 1 2 2v11a2 2 0 0 1-2 2z" opacity=".2" style="isolation:isolate"/>
  <path fill="#43458b" d="M10 192v-5a2 2 0 0 1 2-2h7v7z"/>
  <path fill="#fff" d="M17.73 187.408a.7.7 0 1 1 .675-.729v.026a.7.7 0 0 1-.675.703zm-.3 1.3a.7.7 0 1 1-.7-.705.7.7 0 0 1 .7.705zm-1.7-1.3a.7.7 0 1 1 .676-.73v.026a.7.7 0 0 1-.676.704zm-.3 1.3a.7.7 0 1 1-.7-.705.7.7 0 0 1 .7.705zm-1.7-1.3a.7.7 0 1 1 .676-.73v.026a.7.7 0 0 1-.676.704zm-.3 1.3a.7.7 0 1 1-.7-.705.7.7 0 0 1 .7.705zm-1.7-1.3a.7.7 0 1 1 .675-.729v.026a.7.7 0 0 1-.675.703zm0 2.592a.7.7 0 1 1-.678.73v-.027a.7.7 0 0 1 .678-.703zm2 0a.7.7 0 1 1-.678.73v-.027a.7.7 0 0 1 .678-.703zm2 0a.7.7 0 1 1-.678.73v-.027a.7.7 0 0 1 .678-.703zm2 0a.7.7 0 1 1-.678.73v-.027a.7.7 0 0 1 .678-.703z"/>
  <path fill="#fff" d="M19 189.21a.7.7 0 1 1 0-1.011zm-9-.975a.7.7 0 1 1 .516 1.173.694.694 0 0 1-.516-.234z" opacity=".5" style="isolation:isolate"/>
  <path fill="#f6f9fc" d="M51 185h9a2 2 0 0 1 2 2v11H51z"/>
  <path fill="#012b7f" d="M42 197h19v2H42z"/>
  <path fill="#eaeef3" d="M61 186.5h1v11h-1z"/>
  <path fill="#f6f9fc" d="M43 185h8v12H41v-10a2 2 0 0 1 2-2z"/>
  <circle cx="45.5" cy="189.5" r="2.5" fill="#fcd669"/>
  <path fill="#012b7f" d="M42 193.33h19v2H42zm8-3.66h11v2H50zm0-3.67h9.93a1.07 1.07 0 0 1 1.07 1.07v.93H50z"/>
  <path fill="#eaeef3" d="M41 188h1v10h-1z"/>
  <path fill="#eaeef3" d="M60 186a1 1 0 0 1 1 1v3h1v-3a2 2 0 0 0-2-2H43a2 2 0 0 0-2 2v3h1v-3a1 1 0 0 1 1-1h17m0 13a1 1 0 0 0 1-1v-3h1v3a2 2 0 0 1-2 2H43a2 2 0 0 1-2-2v-3h1v3a1 1 0 0 0 1 1h17"/>
  <path fill="#fcd669" d="M74 185a2 2 0 0 0-2 2v3h21v-2.995A2.006 2.006 0 0 0 91 185z"/>
  <path fill="#e25950" d="M72 195v2.995A2.006 2.006 0 0 0 74 200h17.01a2 2 0 0 0 2-2v-3z"/>
  <path fill="#43458b" d="M72 190h21v6H72z"/>
  <path fill="#fff" d="M78 194.5a.5.5 0 1 1 .5.5.5.5 0 0 1-.5-.5zm1-2a.5.5 0 1 1 .5.5.5.5 0 0 1-.5-.5zm3-1a.5.5 0 1 1 .5.5.5.5 0 0 1-.5-.5zm3 1a.5.5 0 1 1 .5.5.5.5 0 0 1-.5-.5zm1 2a.5.5 0 1 1 .5.5.5.5 0 0 1-.5-.5z"/>
  <rect width="21" height="15" x="103" y="185" fill="#e25950" rx="2" ry="2"/>
  <path fill="#fcd669" d="M117.633 191l-2.625.006a.364.364 0 0 1-.347-.253l-.813-2.5a.364.364 0 0 0-.695 0l-.811 2.5a.364.364 0 0 1-.347.253h-2.626a.364.364 0 0 0-.215.661l2.124 1.544a.364.364 0 0 1 .132.409l-.81 2.5a.364.364 0 0 0 .562.41l2.124-1.426a.364.364 0 0 1 .43 0l2.125 1.425a.364.364 0 0 0 .563-.409l-.813-2.5a.364.364 0 0 1 .132-.41l2.125-1.543a.364.364 0 0 0 .134-.409.37.37 0 0 0-.35-.257z"/>
  <path d="M153 200h-11.1l8.66-15H153a2 2 0 0 1 2 2v11a2 2 0 0 1-2 2zm-14.562 0H136a2 2 0 0 1-2-2v-11a2 2 0 0 1 2-2h11.1z"/>
  <path fill="#e25950" d="M166.995 185a2 2 0 0 0-2 2v3h21v-2.995a2.006 2.006 0 0 0-1.99-2.005z"/>
  <path fill="#fff" d="M165 190h21v5h-21z"/>
  <path d="M165 195v2.995a2.006 2.006 0 0 0 1.995 2.005H184a2 2 0 0 0 2-2v-3z"/>
  <path fill="#eaeef3" d="M165 190h1v5h-1zm20 0h1v5h-1z"/>
  <path fill="#f6f9fc" d="M199 185h18v15h-18z"/>
  <path fill="#e25950" d="M206.24 189.25H217V187a2 2 0 0 0-2-2h-14.71z"/>
  <path fill="#012b7f" d="M200.29 200H215a2 2 0 0 0 2-2v-2.25h-10.76z"/>
  <path fill="#24b47e" d="M217 195h-11l-7 5h-1a2 2 0 0 1-2-2v-11a2 2 0 0 1 2-2h1l7 5h11z"/>
  <path d="M196 197v-9l6.5 4.5z"/>
  <path fill="#fcd669" d="M196.43 187.38l-.43-.29v.91l6.5 4.5-6.5 4.5v.91l.43-.29 6.5-4.5.89-.62-.89-.62-6.5-4.5z"/>
  <path fill="none" d="M0 0h537v210H0z"/>
</svg>
